<?xml version="1.0" encoding="utf-8" standalone="yes"?>
<!DOCTYPE svg PUBLIC "-//W3C//DTD SVG 1.1//EN" "http://www.w3.org/Graphics/SVG/1.1/DTD/svg11.dtd">
<svg width="552" height="150" viewBox="0 0 552 150" style="fill:none;stroke:none;fill-rule:evenodd;clip-rule:evenodd;stroke-linecap:round;stroke-linejoin:round;stroke-miterlimit:1.5;" version="1.1" xmlns="http://www.w3.org/2000/svg" xmlns:xlink="http://www.w3.org/1999/xlink"><style id="fontImports">@import url("https://fonts.googleapis.com/css2?family=Roboto:wght@400;700&amp;display=block");</style><g id="items" style="isolation: isolate"><g id="blend" style="mix-blend-mode:multiply"><g id="g-root-pad_1ha3d60tq76kk-fill" data-item-order="0" data-item-id="pad_1ha3d60tq76kk" data-item-class="Icon Stroke SceneTarget Indexed" data-item-index="none" data-renderer-id="0" transform="translate(50, 8)"></g><g id="g-root-tech_91ilpktq9z48-fill" data-item-order="0" data-item-id="tech_91ilpktq9z48" data-item-class="Icon Stroke SceneTarget Indexed" data-item-index="none" data-renderer-id="0" transform="translate(182, 8)"></g><g id="g-root-2_hs5t9ktq77d9-fill" data-item-order="0" data-item-id="2_hs5t9ktq77d9" data-item-class="Icon Stroke SceneTarget Indexed" data-item-index="none" data-renderer-id="0" transform="translate(314, 8)"></g><g id="g-root-cale_1i9uwtq76km-fill" data-item-order="0" data-item-id="cale_1i9uwtq76km" data-item-class="Icon Stroke SceneTarget Indexed" data-item-index="none" data-renderer-id="0" transform="translate(446, 8)"></g><g id="g-root-tx_automate_1q9h7xktq4bgr-fill" data-item-order="0" data-item-id="tx_automate_1q9h7xktq4bgr" data-item-class="Label Stroke SceneTarget Indexed" data-item-index="none" data-renderer-id="0" transform="translate(14, 56)"><g id="tx_automate_1q9h7xktq4bgr-fill" stroke="none" fill="#484848"><g><text style="font: 20px Roboto, sans-serif; white-space: pre;"><tspan x="13.33" y="34" dominant-baseline="ideographic">automated </tspan><tspan x="37.11" y="58" dominant-baseline="ideographic">exam </tspan><tspan x="13.24" y="82" dominant-baseline="ideographic">scheduling</tspan></text></g></g></g><g id="g-root-tx_technolo_zn6oa0tq4bgs-fill" data-item-order="0" data-item-id="tx_technolo_zn6oa0tq4bgs" data-item-class="Label Stroke SceneTarget Indexed" data-item-index="none" data-renderer-id="0" transform="translate(146, 56)"><g id="tx_technolo_zn6oa0tq4bgs-fill" stroke="none" fill="#484848"><g><text style="font: 20px Roboto, sans-serif; white-space: pre;"><tspan x="15" y="34" dominant-baseline="ideographic">technology</tspan></text></g></g></g><g id="g-root-tx_efficien_1uqjo88tq4cul-fill" data-item-order="0" data-item-id="tx_efficien_1uqjo88tq4cul" data-item-class="Label Stroke SceneTarget Indexed" data-item-index="none" data-renderer-id="0" transform="translate(284, 56)"><g id="tx_efficien_1uqjo88tq4cul-fill" stroke="none" fill="#484848"><g><text style="font: 20px Roboto, sans-serif; white-space: pre;"><tspan x="15.72" y="34" dominant-baseline="ideographic">efficiency</tspan></text></g></g></g><g id="g-root-tx_scheduli_1hfpmy0tq4b9q-fill" data-item-order="0" data-item-id="tx_scheduli_1hfpmy0tq4b9q" data-item-class="Label Stroke SceneTarget Indexed" data-item-index="none" data-renderer-id="0" transform="translate(410, 56)"><g id="tx_scheduli_1hfpmy0tq4b9q-fill" stroke="none" fill="#484848"><g><text style="font: 20px Roboto, sans-serif; white-space: pre;"><tspan x="13.19" y="34" dominant-baseline="ideographic">scheduling </tspan><tspan x="23.3" y="58" dominant-baseline="ideographic">conflicts</tspan></text></g></g></g><g id="g-root-pad_1ha3d60tq76kk-stroke" data-item-order="0" data-item-id="pad_1ha3d60tq76kk" data-item-class="Icon Stroke SceneTarget Indexed" data-item-index="none" data-renderer-id="0" transform="translate(50, 8)"><g id="pad_1ha3d60tq76kk-stroke" fill="none" stroke-linecap="round" stroke-linejoin="round" stroke-miterlimit="4" stroke="#e3cd09" stroke-width="2"><g><path d="M 20.285713 19L 20.285713 11.285714M 28 19L 28 11.285714M 35.714287 19L 35.714287 11.285714M 13.857142 15.142857L 42.142857 15.142857C 42.142857 15.142857 44.714287 15.142857 44.714287 17.714285L 44.714287 42.142857C 44.714287 42.142857 44.714287 44.714287 42.142857 44.714287L 13.857142 44.714287C 13.857142 44.714287 11.285714 44.714287 11.285714 42.142857L 11.285714 17.714285C 11.285714 17.714285 11.285714 15.142857 13.857142 15.142857"></path></g></g></g><g id="g-root-tech_91ilpktq9z48-stroke" data-item-order="0" data-item-id="tech_91ilpktq9z48" data-item-class="Icon Stroke SceneTarget Indexed" data-item-index="none" data-renderer-id="0" transform="translate(182, 8)"><g id="tech_91ilpktq9z48-stroke" fill="none" stroke-linecap="round" stroke-linejoin="round" stroke-miterlimit="4" stroke="#dd8433" stroke-width="2"><g><path d="M 18.25 39.25L 37.75 39.25C 37.75 39.25 39.25 39.25 39.25 40.75L 39.25 43.75C 39.25 43.75 39.25 45.25 37.75 45.25L 18.25 45.25C 18.25 45.25 16.75 45.25 16.75 43.75L 16.75 40.75C 16.75 40.75 16.75 39.25 18.25 39.25M 19.75 39.25L 19.75 34.75M 36.25 39.25L 36.25 34.75M 19.75 42.25L 21.25 42.25M 24.25 42.25L 25.75 42.25M 28 19.375C 28.207108 19.375 28.375 19.542892 28.375 19.75C 28.375 19.957108 28.207108 20.125 28 20.125C 27.792892 20.125 27.625 19.957108 27.625 19.75C 27.625 19.542892 27.792892 19.375 28 19.375M 25.75 10.75L 30.25 10.75C 30.25 10.75 31.75 10.75 31.75 12.25L 31.75 21.25C 31.75 21.25 31.75 22.75 30.25 22.75L 25.75 22.75C 25.75 22.75 24.25 22.75 24.25 21.25L 24.25 12.25C 24.25 12.25 24.25 10.75 25.75 10.75M 37.75 15.25L 42.25 15.25C 43.078426 15.25 43.75 15.921573 43.75 16.75L 43.75 21.25L 43.75 21.25L 36.25 21.25L 36.25 21.25L 36.25 16.75C 36.25 15.921573 36.921574 15.25 37.75 15.25ZM 44.036499 25.75C 44.456924 25.749426 44.847176 25.531542 45.068272 25.173944C 45.289364 24.816347 45.309875 24.369862 45.122498 23.9935L 43.75 21.25L 36.25 21.25L 34.877499 23.9935C 34.690125 24.369862 34.710636 24.816347 34.931728 25.173944C 35.152824 25.531542 35.543072 25.749426 35.963501 25.75ZM 12.25 15.25L 19.75 15.25C 19.75 15.25 21.25 15.25 21.25 16.75L 21.25 21.25C 21.25 21.25 21.25 22.75 19.75 22.75L 12.25 22.75C 12.25 22.75 10.75 22.75 10.75 21.25L 10.75 16.75C 10.75 16.75 10.75 15.25 12.25 15.25M 12.25 25.75L 19.75 25.75M 13.75 25.75L 14.5 22.75M 18.25 25.75L 17.5 22.75M 33.407501 30.388C 30.132862 28.205391 25.86714 28.205391 22.592501 30.388M 31.75 33.633999C 29.482782 32.122654 26.529217 32.122654 24.262001 33.634003"></path></g></g></g><g id="g-root-2_hs5t9ktq77d9-stroke" data-item-order="0" data-item-id="2_hs5t9ktq77d9" data-item-class="Icon Stroke SceneTarget Indexed" data-item-index="none" data-renderer-id="0" transform="translate(314, 8)"><g id="2_hs5t9ktq77d9-stroke" fill="none" stroke-linecap="round" stroke-linejoin="round" stroke-miterlimit="4" stroke="#da5da8" stroke-width="2"><g><path d="M 24.25 28.001501C 24.25 30.072567 25.928932 31.751501 28 31.751501C 30.071068 31.751501 31.75 30.072567 31.75 28.001501C 31.75 25.930431 30.071068 24.251501 28 24.251501C 25.928932 24.251501 24.25 25.930431 24.25 28.001501ZM 16 28.001501C 16 34.628914 21.372583 40.001499 28 40.001499C 34.627419 40.001499 40 34.628914 40 28.001501C 40 21.374083 34.627419 16.001499 28 16.001499C 21.372583 16.001499 16 21.374083 16 28.001501ZM 28 16.001499L 28 10.7515M 36.4855 19.515999L 40.197998 15.8035M 40 28.001501L 45.25 28.001501M 36.4855 36.487L 40.197998 40.199501M 28 40.001499L 28 45.251499M 19.5145 36.487L 15.802 40.199501M 16 28.001501L 10.75 28.001501M 19.5145 19.515999L 15.802 15.8035"></path></g></g></g><g id="g-root-cale_1i9uwtq76km-stroke" data-item-order="0" data-item-id="cale_1i9uwtq76km" data-item-class="Icon Stroke SceneTarget Indexed" data-item-index="none" data-renderer-id="0" transform="translate(446, 8)"><g id="cale_1i9uwtq76km-stroke" fill="none" stroke-linecap="round" stroke-linejoin="round" stroke-miterlimit="4" stroke="#b65edf" stroke-width="2"><g><path d="M 12.25 13.7515L 43.75 13.7515C 43.75 13.7515 45.25 13.7515 45.25 15.2515L 45.25 43.751499C 45.25 43.751499 45.25 45.251499 43.75 45.251499L 12.25 45.251499C 12.25 45.251499 10.75 45.251499 10.75 43.751499L 10.75 15.2515C 10.75 15.2515 10.75 13.7515 12.25 13.7515M 18.25 10.7515L 18.25 18.251499M 37.75 10.7515L 37.75 18.251499M 10.75 21.251499L 45.25 21.251499"></path></g></g></g><g id="g-root-tx_automate_1q9h7xktq4bgr-stroke" data-item-order="0" data-item-id="tx_automate_1q9h7xktq4bgr" data-item-class="Label Stroke SceneTarget Indexed" data-item-index="none" data-renderer-id="0" transform="translate(14, 56)"></g><g id="g-root-tx_technolo_zn6oa0tq4bgs-stroke" data-item-order="0" data-item-id="tx_technolo_zn6oa0tq4bgs" data-item-class="Label Stroke SceneTarget Indexed" data-item-index="none" data-renderer-id="0" transform="translate(146, 56)"></g><g id="g-root-tx_efficien_1uqjo88tq4cul-stroke" data-item-order="0" data-item-id="tx_efficien_1uqjo88tq4cul" data-item-class="Label Stroke SceneTarget Indexed" data-item-index="none" data-renderer-id="0" transform="translate(284, 56)"></g><g id="g-root-tx_scheduli_1hfpmy0tq4b9q-stroke" data-item-order="0" data-item-id="tx_scheduli_1hfpmy0tq4b9q" data-item-class="Label Stroke SceneTarget Indexed" data-item-index="none" data-renderer-id="0" transform="translate(410, 56)"></g></g></g></svg>