<?xml version="1.0" encoding="utf-8" standalone="yes"?>
<!DOCTYPE svg PUBLIC "-//W3C//DTD SVG 1.1//EN" "http://www.w3.org/Graphics/SVG/1.1/DTD/svg11.dtd">
<svg width="876" height="595" viewBox="0 0 876 595" style="fill:none;stroke:none;fill-rule:evenodd;clip-rule:evenodd;stroke-linecap:round;stroke-linejoin:round;stroke-miterlimit:1.5;" version="1.1" xmlns="http://www.w3.org/2000/svg" xmlns:xlink="http://www.w3.org/1999/xlink"><style id="fontImports">@import url("https://fonts.googleapis.com/css2?family=Roboto:wght@400;700&amp;display=block");</style><g id="items" style="isolation: isolate"><g id="blend" style="mix-blend-mode:multiply"><g id="g-root-ro_v6q320qyl2q1-fill" data-item-order="-27144" data-item-id="ro_v6q320qyl2q1" data-item-class="Shape Stroke Fill" data-item-index="none" data-renderer-id="0" transform="translate(362, 108)"><g id="ro_v6q320qyl2q1-fill" stroke="none" fill="#f0f0f0"><g><path d="M 34 10L 142 10C 142 10 166 10 166 34L 166 160C 166 160 166 184 142 184L 34 184C 34 184 10 184 10 160L 10 34C 10 34 10 10 34 10"></path></g></g></g><g id="g-root-ro_1hithiwqy6zgl-fill" data-item-order="-14904" data-item-id="ro_1hithiwqy6zgl" data-item-class="Shape Stroke Fill" data-item-index="none" data-renderer-id="0" transform="translate(566, 207)"><g id="ro_1hithiwqy6zgl-fill" stroke="none" fill="#e9fbf3"><g><path d="M 22 10L 274 10C 274 10 286 10 286 22L 286 52C 286 52 286 64 274 64L 22 64C 22 64 10 64 10 52L 10 22C 10 22 10 10 22 10"></path></g></g></g><g id="g-root-ro_zlaq60qyqpdx-fill" data-item-order="-13608" data-item-id="ro_zlaq60qyqpdx" data-item-class="Shape Stroke Fill" data-item-index="none" data-renderer-id="0" transform="translate(62, 3)"><g id="ro_zlaq60qyqpdx-fill" stroke="none" fill="#fef2e6"><g><path d="M 22 10L 250 10C 250 10 262 10 262 22L 262 52C 262 52 262 64 250 64L 22 64C 22 64 10 64 10 52L 10 22C 10 22 10 10 22 10"></path></g></g></g><g id="g-root-ro_mb35ywqyl2br-fill" data-item-order="-11016" data-item-id="ro_mb35ywqyl2br" data-item-class="Shape Stroke Fill" data-item-index="none" data-renderer-id="0" transform="translate(338, 411)"><g id="ro_mb35ywqyl2br-fill" stroke="none" fill="#ffe7e6"><g><path d="M 22 10L 202 10C 202 10 214 10 214 22L 214 52C 214 52 214 64 202 64L 22 64C 22 64 10 64 10 52L 10 22C 10 22 10 10 22 10"></path></g></g></g><g id="g-root-ro_1luw8agqy8dmz-fill" data-item-order="-11016" data-item-id="ro_1luw8agqy8dmz" data-item-class="Shape Stroke Fill" data-item-index="none" data-renderer-id="0" transform="translate(110, 225)"><g id="ro_1luw8agqy8dmz-fill" stroke="none" fill="#f7e6fe"><g><path d="M 22 10L 202 10C 202 10 214 10 214 22L 214 52C 214 52 214 64 202 64L 22 64C 22 64 10 64 10 52L 10 22C 10 22 10 10 22 10"></path></g></g></g><g id="g-root-ro_1d0hzw8qyp8uf-fill" data-item-order="-9720" data-item-id="ro_1d0hzw8qyp8uf" data-item-class="Shape Stroke Fill" data-item-index="none" data-renderer-id="0" transform="translate(566, 21)"><g id="ro_1d0hzw8qyp8uf-fill" stroke="none" fill="#e6efff"><g><path d="M 22 10L 178 10C 178 10 190 10 190 22L 190 52C 190 52 190 64 178 64L 22 64C 22 64 10 64 10 52L 10 22C 10 22 10 10 22 10"></path></g></g></g><g id="g-root-cu_1hgy5fcqy8e81-fill" data-item-order="0" data-item-id="cu_1hgy5fcqy8e81" data-item-class="Curve Stroke ColorFillGray ColorStrokeGray" data-item-index="none" data-renderer-id="0" transform="translate(272, 57)"></g><g id="g-root-cu_1hgy5fcqy8e84-fill" data-item-order="0" data-item-id="cu_1hgy5fcqy8e84" data-item-class="Curve Stroke ColorFillGray ColorStrokeGray" data-item-index="none" data-renderer-id="0" transform="translate(272, 57)"></g><g id="g-root-cu_18lb56gqy8f0u-fill" data-item-order="0" data-item-id="cu_18lb56gqy8f0u" data-item-class="Curve Stroke ColorFillGray ColorStrokeGray" data-item-index="none" data-renderer-id="0" transform="translate(272, 57)"></g><g id="g-root-cu_145hn20qy8ft4-fill" data-item-order="0" data-item-id="cu_145hn20qy8ft4" data-item-class="Curve Stroke ColorFillGray ColorStrokeGray" data-item-index="none" data-renderer-id="0" transform="translate(272, 57)"></g><g id="g-root-cu_18jfpx4qy8f7w-fill" data-item-order="0" data-item-id="cu_18jfpx4qy8f7w" data-item-class="Curve Stroke ColorFillGray ColorStrokeGray" data-item-index="none" data-renderer-id="0" transform="translate(518, 48)"></g><g id="g-root-tx_datauplo_4lohkoqyp91h-fill" data-item-order="0" data-item-id="tx_datauplo_4lohkoqyp91h" data-item-class="Label Stroke" data-item-index="none" data-renderer-id="0" transform="translate(614, 36)"><g id="tx_datauplo_4lohkoqyp91h-fill" stroke="none" fill="#4682e3"><g><text style="font: 20px Roboto, sans-serif; white-space: pre;"><tspan x="15.51" y="34" dominant-baseline="ideographic">Data Upload</tspan></text></g></g></g><g id="g-root-tx_clickgen_6hjp4qyl0jy-fill" data-item-order="0" data-item-id="tx_clickgen_6hjp4qyl0jy" data-item-class="Label Stroke" data-item-index="none" data-renderer-id="0" transform="translate(26, 69)"><g id="tx_clickgen_6hjp4qyl0jy-fill" stroke="none" fill="#484848"><g><text style="font: 20px Roboto, sans-serif; white-space: pre;"><tspan x="13.44" y="34" dominant-baseline="ideographic">Click Generate Allocations</tspan></text></g></g></g><g id="g-root-cu_mcyoe0qy8f7v-fill" data-item-order="0" data-item-id="cu_mcyoe0qy8f7v" data-item-class="Curve Stroke ColorFillGray ColorStrokeGray" data-item-index="none" data-renderer-id="0" transform="translate(590, 75)"></g><g id="g-root-cu_924n3sqy8dn2-fill" data-item-order="0" data-item-id="cu_924n3sqy8dn2" data-item-class="Curve Stroke ColorFillGray ColorStrokeGray" data-item-index="none" data-renderer-id="0" transform="translate(590, 75)"></g><g id="g-root-cu_4mb4zcqy8efc-fill" data-item-order="0" data-item-id="cu_4mb4zcqy8efc" data-item-class="Curve Stroke ColorFillGray ColorStrokeGray" data-item-index="none" data-renderer-id="0" transform="translate(590, 75)"></g><g id="g-root-tx_uploadcs_9094ooqyl0qw-fill" data-item-order="0" data-item-id="tx_uploadcs_9094ooqyl0qw" data-item-class="Label Stroke" data-item-index="none" data-renderer-id="0" transform="translate(614, 87)"><g id="tx_uploadcs_9094ooqyl0qw-fill" stroke="none" fill="#484848"><g><text style="font: 20px Roboto, sans-serif; white-space: pre;"><tspan x="13.79" y="34" dominant-baseline="ideographic">Upload CSV/Excel</tspan></text></g></g></g><g id="g-root-tx_systempr_1urs3jsqyl153-fill" data-item-order="0" data-item-id="tx_systempr_1urs3jsqyl153" data-item-class="Label Stroke" data-item-index="none" data-renderer-id="0" transform="translate(50, 105)"><g id="tx_systempr_1urs3jsqyl153-fill" stroke="none" fill="#484848"><g><text style="font: 20px Roboto, sans-serif; white-space: pre;"><tspan x="12.6" y="34" dominant-baseline="ideographic">System Processes Data</tspan></text></g></g></g><g id="g-root-male_1qbc16gqypafa-fill" data-item-order="0" data-item-id="male_1qbc16gqypafa" data-item-class="Icon Stroke" data-item-index="none" data-renderer-id="0" transform="translate(578, 33)"></g><g id="g-root-a_18i6lfcqyl154-fill" data-item-order="0" data-item-id="a_18i6lfcqyl154" data-item-class="Icon Stroke" data-item-index="none" data-renderer-id="0" transform="translate(416, 132)"></g><g id="g-root-tx_download_1hi70fsqyl1qf-fill" data-item-order="0" data-item-id="tx_download_1hi70fsqyl1qf" data-item-class="Label Stroke" data-item-index="none" data-renderer-id="0" transform="translate(386, 549)"><g id="tx_download_1hi70fsqyl1qf-fill" stroke="none" fill="#484848"><g><text style="font: 20px Roboto, sans-serif; white-space: pre;"><tspan x="12.08" y="34" dominant-baseline="ideographic">Download to Device</tspan></text></g></g></g><g id="g-root-tx_bulkuplo_1upwoagqyl24p-fill" data-item-order="0" data-item-id="tx_bulkuplo_1upwoagqyl24p" data-item-class="Label Stroke" data-item-index="none" data-renderer-id="0" transform="translate(614, 123)"><g id="tx_bulkuplo_1upwoagqyl24p-fill" stroke="none" fill="#484848"><g><text style="font: 20px Roboto, sans-serif; white-space: pre;"><tspan x="16.99" y="34" dominant-baseline="ideographic">Bulk Upload</tspan></text></g></g></g><g id="g-root-tx_createse_1hgbl6gqyl2q0-fill" data-item-order="0" data-item-id="tx_createse_1hgbl6gqyl2q0" data-item-class="Label Stroke" data-item-index="none" data-renderer-id="0" transform="translate(2, 141)"><g id="tx_createse_1hgbl6gqyl2q0-fill" stroke="none" fill="#484848"><g><text style="font: 20px Roboto, sans-serif; white-space: pre;"><tspan x="16.65" y="34" dominant-baseline="ideographic">Create Seating Arrangement</tspan></text></g></g></g><g id="g-root-tx_dragandd_1hf2n08qyl0ju-fill" data-item-order="0" data-item-id="tx_dragandd_1hf2n08qyl0ju" data-item-class="Label Stroke" data-item-index="none" data-renderer-id="0" transform="translate(614, 159)"><g id="tx_dragandd_1hf2n08qyl0ju-fill" stroke="none" fill="#484848"><g><text style="font: 20px Roboto, sans-serif; white-space: pre;"><tspan x="12.9" y="34" dominant-baseline="ideographic">Drag-and-Drop Area</tspan></text></g></g></g><g id="g-root-tx_createex_1d0i320qyl3i9-fill" data-item-order="0" data-item-id="tx_createex_1d0i320qyl3i9" data-item-class="Label Stroke" data-item-index="none" data-renderer-id="0" transform="translate(62, 177)"><g id="tx_createex_1d0i320qyl3i9-fill" stroke="none" fill="#484848"><g><text style="font: 20px Roboto, sans-serif; white-space: pre;"><tspan x="12.25" y="34" dominant-baseline="ideographic">Create Exam Schedule</tspan></text></g></g></g><g id="g-root-tx_examsche_1q8u4u0qyl1xr-fill" data-item-order="0" data-item-id="tx_examsche_1q8u4u0qyl1xr" data-item-class="Label Stroke" data-item-index="none" data-renderer-id="0" transform="translate(386, 186)"><g id="tx_examsche_1q8u4u0qyl1xr-fill" stroke="none" fill="#484848"><g><text style="font: 20px Roboto, sans-serif; white-space: pre;"><tspan x="36.67" y="34" dominant-baseline="ideographic">Exam </tspan><tspan x="12.41" y="58" dominant-baseline="ideographic">Scheduling </tspan><tspan x="25.37" y="82" dominant-baseline="ideographic">Process</tspan></text></g></g></g><g id="g-root-cu_143m7soqy8g0a-fill" data-item-order="0" data-item-id="cu_143m7soqy8g0a" data-item-class="Curve Stroke ColorFillGray ColorStrokeGray" data-item-index="none" data-renderer-id="0" transform="translate(314, 30)"></g><g id="g-root-cu_zof6rcqy8dmt-fill" data-item-order="0" data-item-id="cu_zof6rcqy8dmt" data-item-class="Curve Stroke ColorFillGray ColorStrokeGray" data-item-index="none" data-renderer-id="0" transform="translate(314, 224)"></g><g id="g-root-cu_143m7soqy8g07-fill" data-item-order="0" data-item-id="cu_143m7soqy8g07" data-item-class="Curve Stroke ColorFillGray ColorStrokeGray" data-item-index="none" data-renderer-id="0" transform="translate(518, 224)"></g><g id="g-root-1_1utnit4qy711g-fill" data-item-order="0" data-item-id="1_1utnit4qy711g" data-item-class="Icon Stroke" data-item-index="none" data-renderer-id="0" transform="translate(578, 219)"></g><g id="g-root-tx_customin_djthbsqy6yvf-fill" data-item-order="0" data-item-id="tx_customin_djthbsqy6yvf" data-item-class="Label Stroke" data-item-index="none" data-renderer-id="0" transform="translate(614, 222)"><g id="tx_customin_djthbsqy6yvf-fill" stroke="none" fill="#3bc482"><g><text style="font: 20px Roboto, sans-serif; white-space: pre;"><tspan x="14.5" y="34" dominant-baseline="ideographic">Custom Input Selection</tspan></text></g></g></g><g id="g-root-tx_reviewan_dg2pywqy8du1-fill" data-item-order="0" data-item-id="tx_reviewan_dg2pywqy8du1" data-item-class="Label Stroke" data-item-index="none" data-renderer-id="0" transform="translate(122, 240)"><g id="tx_reviewan_dg2pywqy8du1-fill" stroke="none" fill="#b65edf"><g><text style="font: 20px Roboto, sans-serif; white-space: pre;"><tspan x="12.05" y="34" dominant-baseline="ideographic">Review and Edit</tspan></text></g></g></g><g id="g-root-1_4m7lkqy8fey-fill" data-item-order="0" data-item-id="1_4m7lkqy8fey" data-item-class="Icon Stroke" data-item-index="none" data-renderer-id="0" transform="translate(272, 237)"></g><g id="g-root-cu_6hmuwqy8f7m-fill" data-item-order="0" data-item-id="cu_6hmuwqy8f7m" data-item-class="Curve Stroke ColorFillGray ColorStrokeGray" data-item-index="none" data-renderer-id="0" transform="translate(590, 261)"></g><g id="g-root-cu_1qbyol4qy8ft9-fill" data-item-order="0" data-item-id="cu_1qbyol4qy8ft9" data-item-class="Curve Stroke ColorFillGray ColorStrokeGray" data-item-index="none" data-renderer-id="0" transform="translate(590, 261)"></g><g id="g-root-cu_1lwrnjsqy8dfr-fill" data-item-order="0" data-item-id="cu_1lwrnjsqy8dfr" data-item-class="Curve Stroke ColorFillGray ColorStrokeGray" data-item-index="none" data-renderer-id="0" transform="translate(590, 261)"></g><g id="g-root-cu_zqam0oqy8dfm-fill" data-item-order="0" data-item-id="cu_zqam0oqy8dfm" data-item-class="Curve Stroke ColorFillGray ColorStrokeGray" data-item-index="none" data-renderer-id="0" transform="translate(272, 279)"></g><g id="g-root-cu_qunlrsqy8e8d-fill" data-item-order="0" data-item-id="cu_qunlrsqy8e8d" data-item-class="Curve Stroke ColorFillGray ColorStrokeGray" data-item-index="none" data-renderer-id="0" transform="translate(272, 279)"></g><g id="g-root-cu_meu3ncqy8f0n-fill" data-item-order="0" data-item-id="cu_meu3ncqy8f0n" data-item-class="Curve Stroke ColorFillGray ColorStrokeGray" data-item-index="none" data-renderer-id="0" transform="translate(272, 279)"></g><g id="g-root-cu_v8lomwqy8ef4-fill" data-item-order="0" data-item-id="cu_v8lomwqy8ef4" data-item-class="Curve Stroke ColorFillGray ColorStrokeGray" data-item-index="none" data-renderer-id="0" transform="translate(440, 282)"></g><g id="g-root-tx_selectex_znsmigqyl2wz-fill" data-item-order="0" data-item-id="tx_selectex_znsmigqyl2wz" data-item-class="Label Stroke" data-item-index="none" data-renderer-id="0" transform="translate(614, 273)"><g id="tx_selectex_znsmigqyl2wz-fill" stroke="none" fill="#484848"><g><text style="font: 20px Roboto, sans-serif; white-space: pre;"><tspan x="15.69" y="34" dominant-baseline="ideographic">Select Exam Type</tspan></text></g></g></g><g id="g-root-tx_viewsumm_145hjw8qyl156-fill" data-item-order="0" data-item-id="tx_viewsumm_145hjw8qyl156" data-item-class="Label Stroke" data-item-index="none" data-renderer-id="0" transform="translate(122, 291)"><g id="tx_viewsumm_145hjw8qyl156-fill" stroke="none" fill="#484848"><g><text style="font: 20px Roboto, sans-serif; white-space: pre;"><tspan x="15.31" y="34" dominant-baseline="ideographic">View Summary</tspan></text></g></g></g><g id="g-root-tx_specifys_mcyl88qyl1c4-fill" data-item-order="0" data-item-id="tx_specifys_mcyl88qyl1c4" data-item-class="Label Stroke" data-item-index="none" data-renderer-id="0" transform="translate(614, 309)"><g id="tx_specifys_mcyl88qyl1c4-fill" stroke="none" fill="#484848"><g><text style="font: 20px Roboto, sans-serif; white-space: pre;"><tspan x="14.19" y="34" dominant-baseline="ideographic">Specify Seating Capacity</tspan></text></g></g></g><g id="g-root-tx_makeadju_me7jegqyl3ib-fill" data-item-order="0" data-item-id="tx_makeadju_me7jegqyl3ib" data-item-class="Label Stroke" data-item-index="none" data-renderer-id="0" transform="translate(86, 327)"><g id="tx_makeadju_me7jegqyl3ib-fill" stroke="none" fill="#484848"><g><text style="font: 20px Roboto, sans-serif; white-space: pre;"><tspan x="16.59" y="34" dominant-baseline="ideographic">Make Adjustments</tspan></text></g></g></g><g id="g-root-tx_setsched_dhbkzcqyl24t-fill" data-item-order="0" data-item-id="tx_setsched_dhbkzcqyl24t" data-item-class="Label Stroke" data-item-index="none" data-renderer-id="0" transform="translate(614, 345)"><g id="tx_setsched_dhbkzcqyl24t-fill" stroke="none" fill="#484848"><g><text style="font: 20px Roboto, sans-serif; white-space: pre;"><tspan x="16.35" y="34" dominant-baseline="ideographic">Set Schedule Preferences</tspan></text></g></g></g><g id="g-root-tx_regenera_93di48qyl1xg-fill" data-item-order="0" data-item-id="tx_regenera_93di48qyl1xg" data-item-class="Label Stroke" data-item-index="none" data-renderer-id="0" transform="translate(50, 363)"><g id="tx_regenera_93di48qyl1xg-fill" stroke="none" fill="#484848"><g><text style="font: 20px Roboto, sans-serif; white-space: pre;"><tspan x="12.57" y="34" dominant-baseline="ideographic">Re-generate Allocations</tspan></text></g></g></g><g id="g-root-regu_1cwr8jcqyqnt0-fill" data-item-order="0" data-item-id="regu_1cwr8jcqyqnt0" data-item-class="Icon Stroke" data-item-index="none" data-renderer-id="0" transform="translate(272, 15)"></g><g id="g-root-adob_qqwo3cqyl1ji-fill" data-item-order="0" data-item-id="adob_qqwo3cqyl1ji" data-item-class="Icon Stroke" data-item-index="none" data-renderer-id="0" transform="translate(350, 423)"></g><g id="g-root-tx_download_1cxdpmgqyl2bp-fill" data-item-order="0" data-item-id="tx_download_1cxdpmgqyl2bp" data-item-class="Label Stroke" data-item-index="none" data-renderer-id="0" transform="translate(386, 426)"><g id="tx_download_1cxdpmgqyl2bp-fill" stroke="none" fill="#e15e5a"><g><text style="font: 20px Roboto, sans-serif; white-space: pre;"><tspan x="16.63" y="34" dominant-baseline="ideographic">Download PDF</tspan></text></g></g></g><g id="g-root-cu_hz0liwqy8fsx-fill" data-item-order="0" data-item-id="cu_hz0liwqy8fsx" data-item-class="Curve Stroke ColorFillGray ColorStrokeGray" data-item-index="none" data-renderer-id="0" transform="translate(362, 465)"></g><g id="g-root-cu_9402d4qy8dfw-fill" data-item-order="0" data-item-id="cu_9402d4qy8dfw" data-item-class="Curve Stroke ColorFillGray ColorStrokeGray" data-item-index="none" data-renderer-id="0" transform="translate(362, 465)"></g><g id="g-root-cu_4o6k8oqy8e86-fill" data-item-order="0" data-item-id="cu_4o6k8oqy8e86" data-item-class="Curve Stroke ColorFillGray ColorStrokeGray" data-item-index="none" data-renderer-id="0" transform="translate(362, 465)"></g><g id="g-root-tx_generate_7qhvcqyl2q5-fill" data-item-order="0" data-item-id="tx_generate_7qhvcqyl2q5" data-item-class="Label Stroke" data-item-index="none" data-renderer-id="0" transform="translate(386, 477)"><g id="tx_generate_7qhvcqyl2q5-fill" stroke="none" fill="#484848"><g><text style="font: 20px Roboto, sans-serif; white-space: pre;"><tspan x="12.88" y="34" dominant-baseline="ideographic">Generate PDF Report</tspan></text></g></g></g><g id="g-root-tx_included_1ly0ik8qyl0y6-fill" data-item-order="0" data-item-id="tx_included_1ly0ik8qyl0y6" data-item-class="Label Stroke" data-item-index="none" data-renderer-id="0" transform="translate(386, 513)"><g id="tx_included_1ly0ik8qyl0y6-fill" stroke="none" fill="#484848"><g><text style="font: 20px Roboto, sans-serif; white-space: pre;"><tspan x="16.6" y="34" dominant-baseline="ideographic">Include Details</tspan></text></g></g></g><g id="g-root-tx_generate_1q7l9tkqyqpdv-fill" data-item-order="0" data-item-id="tx_generate_1q7l9tkqyqpdv" data-item-class="Label Stroke" data-item-index="none" data-renderer-id="0" transform="translate(74, 18)"><g id="tx_generate_1q7l9tkqyqpdv-fill" stroke="none" fill="#dd8433"><g><text style="font: 20px Roboto, sans-serif; white-space: pre;"><tspan x="13.58" y="34" dominant-baseline="ideographic">Generate Allocations</tspan></text></g></g></g><g id="g-root-ro_v6q320qyl2q1-stroke" data-item-order="-27144" data-item-id="ro_v6q320qyl2q1" data-item-class="Shape Stroke Fill" data-item-index="none" data-renderer-id="0" transform="translate(362, 108)"><g id="ro_v6q320qyl2q1-stroke" fill="none" stroke-linecap="round" stroke-linejoin="round" stroke-miterlimit="4" stroke="#484848" stroke-width="2"><g><path d="M 34 10L 142 10C 142 10 166 10 166 34L 166 160C 166 160 166 184 142 184L 34 184C 34 184 10 184 10 160L 10 34C 10 34 10 10 34 10"></path></g></g></g><g id="g-root-ro_1hithiwqy6zgl-stroke" data-item-order="-14904" data-item-id="ro_1hithiwqy6zgl" data-item-class="Shape Stroke Fill" data-item-index="none" data-renderer-id="0" transform="translate(566, 207)"><g id="ro_1hithiwqy6zgl-stroke" fill="none" stroke-linecap="round" stroke-linejoin="round" stroke-miterlimit="4" stroke="#3bc482" stroke-width="2"><g><path d="M 22 10L 274 10C 274 10 286 10 286 22L 286 52C 286 52 286 64 274 64L 22 64C 22 64 10 64 10 52L 10 22C 10 22 10 10 22 10"></path></g></g></g><g id="g-root-ro_zlaq60qyqpdx-stroke" data-item-order="-13608" data-item-id="ro_zlaq60qyqpdx" data-item-class="Shape Stroke Fill" data-item-index="none" data-renderer-id="0" transform="translate(62, 3)"><g id="ro_zlaq60qyqpdx-stroke" fill="none" stroke-linecap="round" stroke-linejoin="round" stroke-miterlimit="4" stroke="#dd8433" stroke-width="2"><g><path d="M 22 10L 250 10C 250 10 262 10 262 22L 262 52C 262 52 262 64 250 64L 22 64C 22 64 10 64 10 52L 10 22C 10 22 10 10 22 10"></path></g></g></g><g id="g-root-ro_mb35ywqyl2br-stroke" data-item-order="-11016" data-item-id="ro_mb35ywqyl2br" data-item-class="Shape Stroke Fill" data-item-index="none" data-renderer-id="0" transform="translate(338, 411)"><g id="ro_mb35ywqyl2br-stroke" fill="none" stroke-linecap="round" stroke-linejoin="round" stroke-miterlimit="4" stroke="#e15e5a" stroke-width="2"><g><path d="M 22 10L 202 10C 202 10 214 10 214 22L 214 52C 214 52 214 64 202 64L 22 64C 22 64 10 64 10 52L 10 22C 10 22 10 10 22 10"></path></g></g></g><g id="g-root-ro_1luw8agqy8dmz-stroke" data-item-order="-11016" data-item-id="ro_1luw8agqy8dmz" data-item-class="Shape Stroke Fill" data-item-index="none" data-renderer-id="0" transform="translate(110, 225)"><g id="ro_1luw8agqy8dmz-stroke" fill="none" stroke-linecap="round" stroke-linejoin="round" stroke-miterlimit="4" stroke="#b65edf" stroke-width="2"><g><path d="M 22 10L 202 10C 202 10 214 10 214 22L 214 52C 214 52 214 64 202 64L 22 64C 22 64 10 64 10 52L 10 22C 10 22 10 10 22 10"></path></g></g></g><g id="g-root-ro_1d0hzw8qyp8uf-stroke" data-item-order="-9720" data-item-id="ro_1d0hzw8qyp8uf" data-item-class="Shape Stroke Fill" data-item-index="none" data-renderer-id="0" transform="translate(566, 21)"><g id="ro_1d0hzw8qyp8uf-stroke" fill="none" stroke-linecap="round" stroke-linejoin="round" stroke-miterlimit="4" stroke="#4682e3" stroke-width="2"><g><path d="M 22 10L 178 10C 178 10 190 10 190 22L 190 52C 190 52 190 64 178 64L 22 64C 22 64 10 64 10 52L 10 22C 10 22 10 10 22 10"></path></g></g></g><g id="g-root-cu_1hgy5fcqy8e81-stroke" data-item-order="0" data-item-id="cu_1hgy5fcqy8e81" data-item-class="Curve Stroke ColorFillGray ColorStrokeGray" data-item-index="none" data-renderer-id="0" transform="translate(272, 57)"><g id="cu_1hgy5fcqy8e81-stroke" fill="none" stroke-linecap="round" stroke-linejoin="round" stroke-miterlimit="4" stroke="#888888" stroke-width="2" stroke-dasharray="5.0, 7.0"><g><path d="M 28 10L 28 22L 28 34L 19 34L 10 34"></path></g></g></g><g id="g-root-cu_1hgy5fcqy8e84-stroke" data-item-order="0" data-item-id="cu_1hgy5fcqy8e84" data-item-class="Curve Stroke ColorFillGray ColorStrokeGray" data-item-index="none" data-renderer-id="0" transform="translate(272, 57)"><g id="cu_1hgy5fcqy8e84-stroke" fill="none" stroke-linecap="round" stroke-linejoin="round" stroke-miterlimit="4" stroke="#888888" stroke-width="2" stroke-dasharray="5.0, 7.0"><g><path d="M 28 10L 28 40L 28 70L 19 70L 10 70"></path></g></g></g><g id="g-root-cu_18lb56gqy8f0u-stroke" data-item-order="0" data-item-id="cu_18lb56gqy8f0u" data-item-class="Curve Stroke ColorFillGray ColorStrokeGray" data-item-index="none" data-renderer-id="0" transform="translate(272, 57)"><g id="cu_18lb56gqy8f0u-stroke" fill="none" stroke-linecap="round" stroke-linejoin="round" stroke-miterlimit="4" stroke="#888888" stroke-width="2" stroke-dasharray="5.0, 7.0"><g><path d="M 28 10L 28 58L 28 106L 19 106L 10 106"></path></g></g></g><g id="g-root-cu_145hn20qy8ft4-stroke" data-item-order="0" data-item-id="cu_145hn20qy8ft4" data-item-class="Curve Stroke ColorFillGray ColorStrokeGray" data-item-index="none" data-renderer-id="0" transform="translate(272, 57)"><g id="cu_145hn20qy8ft4-stroke" fill="none" stroke-linecap="round" stroke-linejoin="round" stroke-miterlimit="4" stroke="#888888" stroke-width="2" stroke-dasharray="5.0, 7.0"><g><path d="M 28 10L 28 26.5L 28 130C 28.000005 136.627421 22.627422 142.000005 16.000005 142.000005L 15.9 142L 10 142"></path></g></g></g><g id="g-root-cu_18jfpx4qy8f7w-stroke" data-item-order="0" data-item-id="cu_18jfpx4qy8f7w" data-item-class="Curve Stroke ColorFillGray ColorStrokeGray" data-item-index="none" data-renderer-id="0" transform="translate(518, 48)"><g id="cu_18jfpx4qy8f7w-stroke" fill="none" stroke-linecap="round" stroke-linejoin="round" stroke-miterlimit="4" stroke="#888888" stroke-width="2" stroke-dasharray="5.0, 7.0"><g><path d="M 10 128L 13 128L 13.1 128C 24.642747 128.000004 33.999996 118.642756 33.999997 107.100004L 34 107L 34 30.9C 33.999999 19.357249 43.357248 10.000001 54.899999 10.000002L 55 10L 58 10"></path></g></g></g><g id="g-root-tx_datauplo_4lohkoqyp91h-stroke" data-item-order="0" data-item-id="tx_datauplo_4lohkoqyp91h" data-item-class="Label Stroke" data-item-index="none" data-renderer-id="0" transform="translate(614, 36)"></g><g id="g-root-tx_clickgen_6hjp4qyl0jy-stroke" data-item-order="0" data-item-id="tx_clickgen_6hjp4qyl0jy" data-item-class="Label Stroke" data-item-index="none" data-renderer-id="0" transform="translate(26, 69)"></g><g id="g-root-cu_mcyoe0qy8f7v-stroke" data-item-order="0" data-item-id="cu_mcyoe0qy8f7v" data-item-class="Curve Stroke ColorFillGray ColorStrokeGray" data-item-index="none" data-renderer-id="0" transform="translate(590, 75)"><g id="cu_mcyoe0qy8f7v-stroke" fill="none" stroke-linecap="round" stroke-linejoin="round" stroke-miterlimit="4" stroke="#888888" stroke-width="2" stroke-dasharray="5.0, 7.0"><g><path d="M 10 10L 10 22L 10 34L 19 34L 28 34"></path></g></g></g><g id="g-root-cu_924n3sqy8dn2-stroke" data-item-order="0" data-item-id="cu_924n3sqy8dn2" data-item-class="Curve Stroke ColorFillGray ColorStrokeGray" data-item-index="none" data-renderer-id="0" transform="translate(590, 75)"><g id="cu_924n3sqy8dn2-stroke" fill="none" stroke-linecap="round" stroke-linejoin="round" stroke-miterlimit="4" stroke="#888888" stroke-width="2" stroke-dasharray="5.0, 7.0"><g><path d="M 10 10L 10 40L 10 70L 19 70L 28 70"></path></g></g></g><g id="g-root-cu_4mb4zcqy8efc-stroke" data-item-order="0" data-item-id="cu_4mb4zcqy8efc" data-item-class="Curve Stroke ColorFillGray ColorStrokeGray" data-item-index="none" data-renderer-id="0" transform="translate(590, 75)"><g id="cu_4mb4zcqy8efc-stroke" fill="none" stroke-linecap="round" stroke-linejoin="round" stroke-miterlimit="4" stroke="#888888" stroke-width="2" stroke-dasharray="5.0, 7.0"><g><path d="M 10 10L 10 22L 10 94C 10.000004 100.627423 15.372587 106.000006 22.000005 106.000005L 22.1 106L 28 106"></path></g></g></g><g id="g-root-tx_uploadcs_9094ooqyl0qw-stroke" data-item-order="0" data-item-id="tx_uploadcs_9094ooqyl0qw" data-item-class="Label Stroke" data-item-index="none" data-renderer-id="0" transform="translate(614, 87)"></g><g id="g-root-tx_systempr_1urs3jsqyl153-stroke" data-item-order="0" data-item-id="tx_systempr_1urs3jsqyl153" data-item-class="Label Stroke" data-item-index="none" data-renderer-id="0" transform="translate(50, 105)"></g><g id="g-root-male_1qbc16gqypafa-stroke" data-item-order="0" data-item-id="male_1qbc16gqypafa" data-item-class="Icon Stroke" data-item-index="none" data-renderer-id="0" transform="translate(578, 33)"><g id="male_1qbc16gqypafa-stroke" fill="none" stroke-linecap="round" stroke-linejoin="round" stroke-miterlimit="4" stroke="#4682e3" stroke-width="2"><g><path d="M 23.75 33.125L 14.375 33.125C 12.303932 33.125 10.625 31.446068 10.625 29.375L 10.625 14.375C 10.625 12.303932 12.303932 10.625 14.375 10.625L 29.375 10.625C 31.446068 10.625 33.125 12.303932 33.125 14.375L 33.125 20.625M 39.375 31.708752L 33.141251 24.375L 26.908751 31.708752L 30.30875 31.708752L 30.30875 39.375L 35.975002 39.375L 35.975002 31.708752L 39.375 31.708752ZM 26.91 25.671249C 25.309673 23.495195 22.492495 22.593456 19.926027 23.435774C 17.359558 24.278091 15.624621 26.673841 15.625 29.375L 24.40625 29.375M 18.643749 15.596251C 19.817007 16.81303 21.43471 17.500271 23.125 17.5C 23.973034 17.500244 24.812214 17.32756 25.591249 16.9925M 18.125 17.5C 18.125 19.571068 19.803932 21.25 21.875 21.25C 23.946068 21.25 25.625 19.571068 25.625 17.5C 25.625 15.428932 23.946068 13.75 21.875 13.75C 19.803932 13.75 18.125 15.428932 18.125 17.5"></path></g></g></g><g id="g-root-a_18i6lfcqyl154-stroke" data-item-order="0" data-item-id="a_18i6lfcqyl154" data-item-class="Icon Stroke" data-item-index="none" data-renderer-id="0" transform="translate(416, 132)"><g id="a_18i6lfcqyl154-stroke" fill="none" stroke-linecap="round" stroke-linejoin="round" stroke-miterlimit="4" stroke="#484848" stroke-width="2"><g><path d="M 37.276001 57L 20 57C 18.895432 57 18 56.104568 18 55L 18 13C 18 11.895431 18.895432 11 20 11L 48 11C 49.104568 11 50 11.895431 50 13L 50 46.063999C 49.999779 46.657467 49.736004 47.220181 49.279999 47.599998L 38.556 56.535999C 38.196728 56.835602 37.743801 56.99979 37.276001 57ZM 38 56.862L 38 49C 38 47.895432 38.895432 47 40 47L 49.765999 47M 22 37L 42 37M 22 45L 34 45M 38 29L 38 20C 38 18.343147 39.343147 17 41 17C 42.656857 17 44 18.343147 44 20L 44 29M 38 23L 44 23"></path></g></g></g><g id="g-root-tx_download_1hi70fsqyl1qf-stroke" data-item-order="0" data-item-id="tx_download_1hi70fsqyl1qf" data-item-class="Label Stroke" data-item-index="none" data-renderer-id="0" transform="translate(386, 549)"></g><g id="g-root-tx_bulkuplo_1upwoagqyl24p-stroke" data-item-order="0" data-item-id="tx_bulkuplo_1upwoagqyl24p" data-item-class="Label Stroke" data-item-index="none" data-renderer-id="0" transform="translate(614, 123)"></g><g id="g-root-tx_createse_1hgbl6gqyl2q0-stroke" data-item-order="0" data-item-id="tx_createse_1hgbl6gqyl2q0" data-item-class="Label Stroke" data-item-index="none" data-renderer-id="0" transform="translate(2, 141)"></g><g id="g-root-tx_dragandd_1hf2n08qyl0ju-stroke" data-item-order="0" data-item-id="tx_dragandd_1hf2n08qyl0ju" data-item-class="Label Stroke" data-item-index="none" data-renderer-id="0" transform="translate(614, 159)"></g><g id="g-root-tx_createex_1d0i320qyl3i9-stroke" data-item-order="0" data-item-id="tx_createex_1d0i320qyl3i9" data-item-class="Label Stroke" data-item-index="none" data-renderer-id="0" transform="translate(62, 177)"></g><g id="g-root-tx_examsche_1q8u4u0qyl1xr-stroke" data-item-order="0" data-item-id="tx_examsche_1q8u4u0qyl1xr" data-item-class="Label Stroke" data-item-index="none" data-renderer-id="0" transform="translate(386, 186)"></g><g id="g-root-cu_143m7soqy8g0a-stroke" data-item-order="0" data-item-id="cu_143m7soqy8g0a" data-item-class="Curve Stroke ColorFillGray ColorStrokeGray" data-item-index="none" data-renderer-id="0" transform="translate(314, 30)"><g id="cu_143m7soqy8g0a-stroke" fill="none" stroke-linecap="round" stroke-linejoin="round" stroke-miterlimit="4" stroke="#888888" stroke-width="2" stroke-dasharray="5.0, 7.0"><g><path d="M 58 146L 55 146L 54.9 146C 43.357244 145.999993 33.999996 136.642744 33.999996 125.099994L 34 125L 34 30.9C 33.999998 19.357248 24.64275 10 13.1 10L 13 10L 10 10"></path></g></g></g><g id="g-root-cu_zof6rcqy8dmt-stroke" data-item-order="0" data-item-id="cu_zof6rcqy8dmt" data-item-class="Curve Stroke ColorFillGray ColorStrokeGray" data-item-index="none" data-renderer-id="0" transform="translate(314, 224)"><g id="cu_zof6rcqy8dmt-stroke" fill="none" stroke-linecap="round" stroke-linejoin="round" stroke-miterlimit="4" stroke="#888888" stroke-width="2" stroke-dasharray="5.0, 7.0"><g><path d="M 58 10L 55 10L 54.9 10C 50.870243 9.983299 46.497953 11.301926 42.300001 13.8C 39.78535 15.340094 36.796876 19.012676 34.000001 24C 31.203126 28.987325 28.214652 32.659907 25.700001 34.2C 21.502047 36.698075 17.129757 38.016702 13.1 38.000002L 13 38L 10 38"></path></g></g></g><g id="g-root-cu_143m7soqy8g07-stroke" data-item-order="0" data-item-id="cu_143m7soqy8g07" data-item-class="Curve Stroke ColorFillGray ColorStrokeGray" data-item-index="none" data-renderer-id="0" transform="translate(518, 224)"><g id="cu_143m7soqy8g07-stroke" fill="none" stroke-linecap="round" stroke-linejoin="round" stroke-miterlimit="4" stroke="#888888" stroke-width="2" stroke-dasharray="5.0, 7.0"><g><path d="M 10 10L 13 10L 13.1 10C 16.360602 10.01615 19.962923 10.453815 23.800001 11.3C 26.03452 11.745014 29.638043 13.052174 34 15.000001C 38.361958 16.947827 41.965481 18.254987 44.200001 18.700001C 48.03708 19.546186 51.639401 19.983851 54.900002 20.000001L 55 20L 58 20"></path></g></g></g><g id="g-root-1_1utnit4qy711g-stroke" data-item-order="0" data-item-id="1_1utnit4qy711g" data-item-class="Icon Stroke" data-item-index="none" data-renderer-id="0" transform="translate(578, 219)"><g id="1_1utnit4qy711g-stroke" fill="none" stroke-linecap="round" stroke-linejoin="round" stroke-miterlimit="4" stroke="#3bc482" stroke-width="2"><g><path d="M 21.536251 39.0625L 14.71375 39.0625C 12.642682 39.0625 10.96375 37.383568 10.96375 35.3125L 10.96375 14.6875C 10.96375 12.616432 12.642682 10.9375 14.71375 10.9375L 25.286251 10.9375C 27.357319 10.9375 29.036251 12.616432 29.036251 14.6875L 29.036251 26.5625M 10.96375 34.0625L 21.536251 34.0625M 14.66125 15.9375L 18.411251 15.9375L 18.411251 19.6875L 14.66125 19.6875ZM 14.66125 24.0625L 18.411251 24.0625L 18.411251 27.8125L 14.66125 27.8125ZM 22.213749 17.8125L 24.713749 17.8125M 22.213749 25.9375L 24.713749 25.9375M 29.286249 37.52L 24.036251 39.02L 25.536249 33.77L 34.509998 24.796249C 35.545532 23.760715 37.224464 23.760715 38.259998 24.796249C 39.295532 25.831783 39.295532 27.510715 38.259998 28.546249ZM 33.385002 25.921251L 37.135002 29.671251M 25.536249 33.77L 29.286249 37.52"></path></g></g></g><g id="g-root-tx_customin_djthbsqy6yvf-stroke" data-item-order="0" data-item-id="tx_customin_djthbsqy6yvf" data-item-class="Label Stroke" data-item-index="none" data-renderer-id="0" transform="translate(614, 222)"></g><g id="g-root-tx_reviewan_dg2pywqy8du1-stroke" data-item-order="0" data-item-id="tx_reviewan_dg2pywqy8du1" data-item-class="Label Stroke" data-item-index="none" data-renderer-id="0" transform="translate(122, 240)"></g><g id="g-root-1_4m7lkqy8fey-stroke" data-item-order="0" data-item-id="1_4m7lkqy8fey" data-item-class="Icon Stroke" data-item-index="none" data-renderer-id="0" transform="translate(272, 237)"><g id="1_4m7lkqy8fey-stroke" fill="none" stroke-linecap="round" stroke-linejoin="round" stroke-miterlimit="4" stroke="#b65edf" stroke-width="2"><g><path d="M 34.375 24.375L 34.375 38.125C 34.375 38.815353 33.815353 39.375 33.125 39.375L 11.875 39.375C 11.184644 39.375 10.625 38.815353 10.625 38.125L 10.625 14.375C 10.625 13.684644 11.184644 13.125 11.875 13.125L 28.125 13.125M 26.030001 27.508751L 19.84375 30.158751L 22.495001 23.971251L 35.842499 10.625L 39.377502 14.16L 26.030001 27.508751ZM 37.083748 16.455L 33.547501 12.91875M 26.030001 27.508751L 22.495001 23.971251"></path></g></g></g><g id="g-root-cu_6hmuwqy8f7m-stroke" data-item-order="0" data-item-id="cu_6hmuwqy8f7m" data-item-class="Curve Stroke ColorFillGray ColorStrokeGray" data-item-index="none" data-renderer-id="0" transform="translate(590, 261)"><g id="cu_6hmuwqy8f7m-stroke" fill="none" stroke-linecap="round" stroke-linejoin="round" stroke-miterlimit="4" stroke="#888888" stroke-width="2" stroke-dasharray="5.0, 7.0"><g><path d="M 10 10L 10 22L 10 34L 19 34L 28 34"></path></g></g></g><g id="g-root-cu_1qbyol4qy8ft9-stroke" data-item-order="0" data-item-id="cu_1qbyol4qy8ft9" data-item-class="Curve Stroke ColorFillGray ColorStrokeGray" data-item-index="none" data-renderer-id="0" transform="translate(590, 261)"><g id="cu_1qbyol4qy8ft9-stroke" fill="none" stroke-linecap="round" stroke-linejoin="round" stroke-miterlimit="4" stroke="#888888" stroke-width="2" stroke-dasharray="5.0, 7.0"><g><path d="M 10 10L 10 40L 10 70L 19 70L 28 70"></path></g></g></g><g id="g-root-cu_1lwrnjsqy8dfr-stroke" data-item-order="0" data-item-id="cu_1lwrnjsqy8dfr" data-item-class="Curve Stroke ColorFillGray ColorStrokeGray" data-item-index="none" data-renderer-id="0" transform="translate(590, 261)"><g id="cu_1lwrnjsqy8dfr-stroke" fill="none" stroke-linecap="round" stroke-linejoin="round" stroke-miterlimit="4" stroke="#888888" stroke-width="2" stroke-dasharray="5.0, 7.0"><g><path d="M 10 10L 10 22L 10 94C 10.000004 100.627423 15.372587 106.000006 22.000005 106.000005L 22.1 106L 28 106"></path></g></g></g><g id="g-root-cu_zqam0oqy8dfm-stroke" data-item-order="0" data-item-id="cu_zqam0oqy8dfm" data-item-class="Curve Stroke ColorFillGray ColorStrokeGray" data-item-index="none" data-renderer-id="0" transform="translate(272, 279)"><g id="cu_zqam0oqy8dfm-stroke" fill="none" stroke-linecap="round" stroke-linejoin="round" stroke-miterlimit="4" stroke="#888888" stroke-width="2" stroke-dasharray="5.0, 7.0"><g><path d="M 28 10L 28 22L 28 34L 19 34L 10 34"></path></g></g></g><g id="g-root-cu_qunlrsqy8e8d-stroke" data-item-order="0" data-item-id="cu_qunlrsqy8e8d" data-item-class="Curve Stroke ColorFillGray ColorStrokeGray" data-item-index="none" data-renderer-id="0" transform="translate(272, 279)"><g id="cu_qunlrsqy8e8d-stroke" fill="none" stroke-linecap="round" stroke-linejoin="round" stroke-miterlimit="4" stroke="#888888" stroke-width="2" stroke-dasharray="5.0, 7.0"><g><path d="M 28 10L 28 40L 28 70L 19 70L 10 70"></path></g></g></g><g id="g-root-cu_meu3ncqy8f0n-stroke" data-item-order="0" data-item-id="cu_meu3ncqy8f0n" data-item-class="Curve Stroke ColorFillGray ColorStrokeGray" data-item-index="none" data-renderer-id="0" transform="translate(272, 279)"><g id="cu_meu3ncqy8f0n-stroke" fill="none" stroke-linecap="round" stroke-linejoin="round" stroke-miterlimit="4" stroke="#888888" stroke-width="2" stroke-dasharray="5.0, 7.0"><g><path d="M 28 10L 28 22L 28 94C 28.000002 100.627415 22.627419 105.999998 16.000002 105.999998L 15.9 106L 10 106"></path></g></g></g><g id="g-root-cu_v8lomwqy8ef4-stroke" data-item-order="0" data-item-id="cu_v8lomwqy8ef4" data-item-class="Curve Stroke ColorFillGray ColorStrokeGray" data-item-index="none" data-renderer-id="0" transform="translate(440, 282)"><g id="cu_v8lomwqy8ef4-stroke" fill="none" stroke-linecap="round" stroke-linejoin="round" stroke-miterlimit="4" stroke="#888888" stroke-width="2" stroke-dasharray="5.0, 7.0"><g><path d="M 10 10L 10 74.5L 10 139"></path></g></g></g><g id="g-root-tx_selectex_znsmigqyl2wz-stroke" data-item-order="0" data-item-id="tx_selectex_znsmigqyl2wz" data-item-class="Label Stroke" data-item-index="none" data-renderer-id="0" transform="translate(614, 273)"></g><g id="g-root-tx_viewsumm_145hjw8qyl156-stroke" data-item-order="0" data-item-id="tx_viewsumm_145hjw8qyl156" data-item-class="Label Stroke" data-item-index="none" data-renderer-id="0" transform="translate(122, 291)"></g><g id="g-root-tx_specifys_mcyl88qyl1c4-stroke" data-item-order="0" data-item-id="tx_specifys_mcyl88qyl1c4" data-item-class="Label Stroke" data-item-index="none" data-renderer-id="0" transform="translate(614, 309)"></g><g id="g-root-tx_makeadju_me7jegqyl3ib-stroke" data-item-order="0" data-item-id="tx_makeadju_me7jegqyl3ib" data-item-class="Label Stroke" data-item-index="none" data-renderer-id="0" transform="translate(86, 327)"></g><g id="g-root-tx_setsched_dhbkzcqyl24t-stroke" data-item-order="0" data-item-id="tx_setsched_dhbkzcqyl24t" data-item-class="Label Stroke" data-item-index="none" data-renderer-id="0" transform="translate(614, 345)"></g><g id="g-root-tx_regenera_93di48qyl1xg-stroke" data-item-order="0" data-item-id="tx_regenera_93di48qyl1xg" data-item-class="Label Stroke" data-item-index="none" data-renderer-id="0" transform="translate(50, 363)"></g><g id="g-root-regu_1cwr8jcqyqnt0-stroke" data-item-order="0" data-item-id="regu_1cwr8jcqyqnt0" data-item-class="Icon Stroke" data-item-index="none" data-renderer-id="0" transform="translate(272, 15)"><g id="regu_1cwr8jcqyqnt0-stroke" fill="none" stroke-linecap="round" stroke-linejoin="round" stroke-miterlimit="4" stroke="#dd8433" stroke-width="2"><g><path d="M 15.3125 15C 15.3125 16.725889 16.711611 18.125 18.4375 18.125C 20.163389 18.125 21.5625 16.725889 21.5625 15C 21.5625 13.27411 20.163389 11.875 18.4375 11.875C 16.711611 11.875 15.3125 13.27411 15.3125 15M 30.3125 39.375C 29.335258 39.377666 28.522144 38.62458 28.450001 37.650002L 28.099998 33.599998C 28.022442 32.632996 27.220062 31.88483 26.25 31.875L 22.625 31.875C 20.388083 31.86265 18.516455 30.173882 18.275 27.949999L 17.2125 22.837502C 17.026289 21.802052 17.714636 20.811674 18.750053 20.625298C 19.785471 20.438923 20.775959 21.127111 20.9625 22.162498L 22.025 27.35C 22.025 27.5 22.025 28.125 22.675001 28.125L 26.25 28.125C 29.165953 28.139368 31.591984 30.370449 31.849998 33.275002L 32.200001 37.349998C 32.242153 37.874901 32.061638 38.39333 31.702591 38.778534C 31.343544 39.163738 30.839064 39.380203 30.3125 39.375ZM 11.5625 23.125L 13.0625 23.125C 13.658325 23.110437 14.181558 23.518559 14.3125 24.1L 15.75 30.35C 16.21302 32.679089 18.250374 34.361214 20.625 34.375L 24.2125 34.375C 24.848282 34.370407 25.386221 34.843792 25.4625 35.474998L 25.775 37.974998C 25.818117 38.331638 25.705715 38.689587 25.466459 38.957554C 25.227203 39.225517 24.884226 39.377598 24.525 39.375L 11.5625 39.375M 38.4375 20C 38.4375 21.380713 37.318214 22.5 35.9375 22.5L 32.1875 22.5C 30.806787 22.5 29.6875 21.380713 29.6875 20L 29.6875 13.125C 29.6875 11.744288 30.806787 10.625 32.1875 10.625L 35.9375 10.625C 37.318214 10.625 38.4375 11.744288 38.4375 13.125Z"></path></g></g></g><g id="g-root-adob_qqwo3cqyl1ji-stroke" data-item-order="0" data-item-id="adob_qqwo3cqyl1ji" data-item-class="Icon Stroke" data-item-index="none" data-renderer-id="0" transform="translate(350, 423)"><g id="adob_qqwo3cqyl1ji-stroke" fill="none" stroke-linecap="round" stroke-linejoin="round" stroke-miterlimit="4" stroke="#e15e5a" stroke-width="2"><g><path d="M 36.508751 15.625C 36.743187 15.859366 36.874928 16.177258 36.875 16.508749L 36.875 38.125C 36.875 38.815353 36.315353 39.375 35.625 39.375L 14.375 39.375C 13.684644 39.375 13.125 38.815353 13.125 38.125L 13.125 11.875C 13.125 11.184644 13.684644 10.625 14.375 10.625L 30.991249 10.625C 31.322386 10.624408 31.640224 10.75523 31.875 10.98875ZM 17.95125 18.61125C 16.887501 16.860001 19.432501 15.25 20.0975 17.046249C 21.23625 20.130001 23.067501 28.4725 18.936251 34.142498C 17.783751 35.7225 15.2975 34.22625 16.635 32.579998C 20.511766 28.007423 26.217867 25.391098 32.212502 25.4375C 34.297501 25.516251 34.189999 28.477499 32.325001 28.25C 26.290371 27.460838 20.972185 23.894569 17.95125 18.61125Z"></path></g></g></g><g id="g-root-tx_download_1cxdpmgqyl2bp-stroke" data-item-order="0" data-item-id="tx_download_1cxdpmgqyl2bp" data-item-class="Label Stroke" data-item-index="none" data-renderer-id="0" transform="translate(386, 426)"></g><g id="g-root-cu_hz0liwqy8fsx-stroke" data-item-order="0" data-item-id="cu_hz0liwqy8fsx" data-item-class="Curve Stroke ColorFillGray ColorStrokeGray" data-item-index="none" data-renderer-id="0" transform="translate(362, 465)"><g id="cu_hz0liwqy8fsx-stroke" fill="none" stroke-linecap="round" stroke-linejoin="round" stroke-miterlimit="4" stroke="#888888" stroke-width="2" stroke-dasharray="5.0, 7.0"><g><path d="M 10 10L 10 22L 10 34L 19 34L 28 34"></path></g></g></g><g id="g-root-cu_9402d4qy8dfw-stroke" data-item-order="0" data-item-id="cu_9402d4qy8dfw" data-item-class="Curve Stroke ColorFillGray ColorStrokeGray" data-item-index="none" data-renderer-id="0" transform="translate(362, 465)"><g id="cu_9402d4qy8dfw-stroke" fill="none" stroke-linecap="round" stroke-linejoin="round" stroke-miterlimit="4" stroke="#888888" stroke-width="2" stroke-dasharray="5.0, 7.0"><g><path d="M 10 10L 10 40L 10 70L 19 70L 28 70"></path></g></g></g><g id="g-root-cu_4o6k8oqy8e86-stroke" data-item-order="0" data-item-id="cu_4o6k8oqy8e86" data-item-class="Curve Stroke ColorFillGray ColorStrokeGray" data-item-index="none" data-renderer-id="0" transform="translate(362, 465)"><g id="cu_4o6k8oqy8e86-stroke" fill="none" stroke-linecap="round" stroke-linejoin="round" stroke-miterlimit="4" stroke="#888888" stroke-width="2" stroke-dasharray="5.0, 7.0"><g><path d="M 10 10L 10 22L 10 94C 10.000004 100.627423 15.372587 106.000006 22.000005 106.000005L 22.1 106L 28 106"></path></g></g></g><g id="g-root-tx_generate_7qhvcqyl2q5-stroke" data-item-order="0" data-item-id="tx_generate_7qhvcqyl2q5" data-item-class="Label Stroke" data-item-index="none" data-renderer-id="0" transform="translate(386, 477)"></g><g id="g-root-tx_included_1ly0ik8qyl0y6-stroke" data-item-order="0" data-item-id="tx_included_1ly0ik8qyl0y6" data-item-class="Label Stroke" data-item-index="none" data-renderer-id="0" transform="translate(386, 513)"></g><g id="g-root-tx_generate_1q7l9tkqyqpdv-stroke" data-item-order="0" data-item-id="tx_generate_1q7l9tkqyqpdv" data-item-class="Label Stroke" data-item-index="none" data-renderer-id="0" transform="translate(74, 18)"></g></g></g></svg>