<?xml version="1.0" encoding="utf-8" standalone="yes"?>
<!DOCTYPE svg PUBLIC "-//W3C//DTD SVG 1.1//EN" "http://www.w3.org/Graphics/SVG/1.1/DTD/svg11.dtd">
<svg width="876" height="204" viewBox="0 0 876 204" style="fill:none;stroke:none;fill-rule:evenodd;clip-rule:evenodd;stroke-linecap:round;stroke-linejoin:round;stroke-miterlimit:1.5;" version="1.1" xmlns="http://www.w3.org/2000/svg" xmlns:xlink="http://www.w3.org/1999/xlink"><style id="fontImports">@import url("https://fonts.googleapis.com/css2?family=Roboto:wght@400;700&amp;display=block");</style><g id="items" style="isolation: isolate"><g id="blend" style="mix-blend-mode:multiply"><g id="g-root-2.cu_sy_v4uhewrs5sll-fill" data-item-order="-20156" data-item-id="2.cu_sy_v4uhewrs5sll" data-item-class="ScenePart Indexed Fill Stroke ColorFillGray" data-item-index="2" data-renderer-id="0" transform="translate(498, 80)"><g id="2.cu_sy_v4uhewrs5sll-fill" stroke="none" fill="none"><g><path d="M 83 70C 87.95 70 92.518 68.402 96.194 65.706C 97.782 66.533 99.586 67 101.5 67C 107.851 67 113 61.851 113 55.5C 113 52.514 111.862 49.794 109.996 47.75C 112.435 45.827 114 42.846 114 39.5C 114 37.08 113.181 34.852 111.806 33.076C 111.934 32.237 112 31.376 112 30.5C 112 21.387 104.837 14 96 14C 95.01 14 94.04 14.093 93.099 14.27C 90.011 11.613 85.95 10 81.5 10C 76.933 10 72.774 11.7 69.658 14.483C 68.661 14.169 67.6 14 66.5 14C 60.701 14 56 18.701 56 24.5C 56 27.072 56.925 29.428 58.46 31.254C 56.915 33.417 56 36.098 56 39C 56 41.302 56.575 43.464 57.584 45.339C 55.359 47.746 54 50.964 54 54.5C 54 61.956 60.044 68 67.5 68C 69.122 68 70.677 67.714 72.118 67.19C 75.327 68.978 79.041 70 83 70ZM 28 40C 28 44.418278 31.581722 48 36 48C 40.418278 48 44 44.418278 44 40C 44 35.581722 40.418278 32 36 32C 31.581722 32 28 35.581722 28 40M 18 40C 18 42.209137 16.209167 44 14 44C 11.790863 44 10 42.209137 10 40C 10 37.790863 11.790863 36 14 36C 16.209167 36 18 37.790863 18 40"></path></g></g></g><g id="g-root-1.cu_sy_18gazs8rs5r0o-fill" data-item-order="-20154" data-item-id="1.cu_sy_18gazs8rs5r0o" data-item-class="ScenePart Indexed Indexed_1 Fill Stroke ColorFillGray" data-item-index="1" data-renderer-id="0" transform="translate(266, 80)"><g id="1.cu_sy_18gazs8rs5r0o-fill" stroke="none" fill="none"><g><path d="M 20.598 19C 20.565 19 20.533 19 20.5 19C 14.701 19 10 23.701 10 29.5C 10 32.574 11.321 35.339 13.426 37.259C 13.147 38.459 13 39.712 13 41C 13 41.745 13.049 42.478 13.145 43.196C 11.788 45.301 11 47.809 11 50.5C 11 57.956 17.044 64 24.5 64C 24.847 64 25.19 63.987 25.53 63.961C 29.172 67.682 34.308 70 40 70C 45.641 70 50.737 67.723 54.373 64.059C 55.621 64.662 57.021 65 58.5 65C 63.747 65 68 60.747 68 55.5C 68 52.628 66.726 50.055 64.712 48.313C 67.948 45.469 70 41.232 70 36.5C 70 32.425 68.478 28.717 65.99 25.95C 65.996 25.801 66 25.651 66 25.5C 66 20.253 61.747 16 56.5 16C 55.92 16 55.353 16.052 54.802 16.151C 50.681 12.338 45.12 10 39 10C 31.475 10 24.794 13.535 20.598 19ZM 80 40C 80 44.418278 83.581722 48 88 48C 92.418278 48 96 44.418278 96 40C 96 35.581722 92.418278 32 88 32C 83.581722 32 80 35.581722 80 40M 114 40C 114 42.209137 112.209137 44 110 44C 107.790863 44 106 42.209137 106 40C 106 37.790863 107.790863 36 110 36C 112.209137 36 114 37.790863 114 40"></path></g></g></g><g id="g-root-tx_howtoimp_1cz8vc8rs5reu-fill" data-item-order="0" data-item-id="tx_howtoimp_1cz8vc8rs5reu" data-item-class="Label Stroke SceneTarget SceneTitle ColorFillBlack ColorStrokeBlack" data-item-index="none" data-renderer-id="0" transform="translate(332, 2)"><g id="tx_howtoimp_1cz8vc8rs5reu-fill" stroke="none" fill="#484848"><g><text style="font: bold 20px Roboto, sans-serif; white-space: pre;"><tspan x="12.18" y="34" dominant-baseline="ideographic">How to improve exam </tspan><tspan x="41.76" y="58" dominant-baseline="ideographic">arrangements?</tspan></text></g></g></g><g id="g-root-face_93d8korsieiu-fill" data-item-order="0" data-item-id="face_93d8korsieiu" data-item-class="Icon Stroke SceneTarget ColorFillBlack ColorStrokeBlack" data-item-index="0" data-renderer-id="0" transform="translate(398, 74)"></g><g id="g-root-tx_manualpr_8zme20rs5tzh-fill" data-item-order="0" data-item-id="tx_manualpr_8zme20rs5tzh" data-item-class="Label Stroke SceneTarget Indexed Indexed_1 ColorFillBlack ColorStrokeBlack" data-item-index="1" data-renderer-id="0" transform="translate(98, 98)"><g id="tx_manualpr_8zme20rs5tzh-fill" stroke="none" fill="#484848"><g><text style="font: bold 20px Roboto, sans-serif; white-space: pre;"><tspan x="19.39" y="34" dominant-baseline="ideographic">Manual Process</tspan></text></g></g></g><g id="g-root-lock_1cwqyzsrsl9mo-fill" data-item-order="0" data-item-id="lock_1cwqyzsrsl9mo" data-item-class="Icon Stroke SceneTarget Indexed Indexed_1 InsideFill InsideGrayFill" data-item-index="1" data-renderer-id="0" transform="translate(278, 92)"></g><g id="g-root-tran_23yjsrsl9u7-fill" data-item-order="0" data-item-id="tran_23yjsrsl9u7" data-item-class="Icon Stroke SceneTarget Indexed InsideFill InsideGrayFill" data-item-index="2" data-renderer-id="0" transform="translate(554, 92)"></g><g id="g-root-tx_automate_1lt0gbsrs5rlv-fill" data-item-order="0" data-item-id="tx_automate_1lt0gbsrs5rlv" data-item-class="Label Stroke SceneTarget Indexed ColorFillBlack ColorStrokeBlack" data-item-index="2" data-renderer-id="0" transform="translate(614, 98)"><g id="tx_automate_1lt0gbsrs5rlv-fill" stroke="none" fill="#484848"><g><text style="font: bold 20px Roboto, sans-serif; white-space: pre;"><tspan x="12" y="34" dominant-baseline="ideographic">Automated Process</tspan></text></g></g></g><g id="g-root-tx_timecons_v6pwo8rs5rlw-fill" data-item-order="0" data-item-id="tx_timecons_v6pwo8rs5rlw" data-item-class="Label Stroke SceneTarget Indexed Indexed_1 ColorStrokeBlack" data-item-index="1" data-renderer-id="0" transform="translate(2, 134)"><g id="tx_timecons_v6pwo8rs5rlw-fill" stroke="none" fill="#484848"><g><text style="font: 20px Roboto, sans-serif; white-space: pre;"><tspan x="16.75" y="34" dominant-baseline="ideographic">Time-consuming and prone </tspan><tspan x="179.61" y="58" dominant-baseline="ideographic">to errors.</tspan></text></g></g></g><g id="g-root-tx_streamli_de6y08rs5rsy-fill" data-item-order="0" data-item-id="tx_streamli_de6y08rs5rsy" data-item-class="Label Stroke SceneTarget Indexed ColorStrokeBlack" data-item-index="2" data-renderer-id="0" transform="translate(614, 134)"><g id="tx_streamli_de6y08rs5rsy-fill" stroke="none" fill="#484848"><g><text style="font: 20px Roboto, sans-serif; white-space: pre;"><tspan x="12" y="34" dominant-baseline="ideographic">Streamlined, efficient, and </tspan><tspan x="12" y="58" dominant-baseline="ideographic">less prone to errors.</tspan></text></g></g></g><g id="g-root-2.cu_sy_v4uhewrs5sll-stroke" data-item-order="-20156" data-item-id="2.cu_sy_v4uhewrs5sll" data-item-class="ScenePart Indexed Fill Stroke ColorFillGray" data-item-index="2" data-renderer-id="0" transform="translate(498, 80)"><g id="2.cu_sy_v4uhewrs5sll-stroke" fill="none" stroke-linecap="round" stroke-linejoin="round" stroke-miterlimit="4" stroke="#17b0e3" stroke-width="2"><g><path d="M 83 70C 87.95 70 92.518 68.402 96.194 65.706C 97.782 66.533 99.586 67 101.5 67C 107.851 67 113 61.851 113 55.5C 113 52.514 111.862 49.794 109.996 47.75C 112.435 45.827 114 42.846 114 39.5C 114 37.08 113.181 34.852 111.806 33.076C 111.934 32.237 112 31.376 112 30.5C 112 21.387 104.837 14 96 14C 95.01 14 94.04 14.093 93.099 14.27C 90.011 11.613 85.95 10 81.5 10C 76.933 10 72.774 11.7 69.658 14.483C 68.661 14.169 67.6 14 66.5 14C 60.701 14 56 18.701 56 24.5C 56 27.072 56.925 29.428 58.46 31.254C 56.915 33.417 56 36.098 56 39C 56 41.302 56.575 43.464 57.584 45.339C 55.359 47.746 54 50.964 54 54.5C 54 61.956 60.044 68 67.5 68C 69.122 68 70.677 67.714 72.118 67.19C 75.327 68.978 79.041 70 83 70ZM 28 40C 28 44.418278 31.581722 48 36 48C 40.418278 48 44 44.418278 44 40C 44 35.581722 40.418278 32 36 32C 31.581722 32 28 35.581722 28 40M 18 40C 18 42.209137 16.209167 44 14 44C 11.790863 44 10 42.209137 10 40C 10 37.790863 11.790863 36 14 36C 16.209167 36 18 37.790863 18 40"></path></g></g></g><g id="g-root-1.cu_sy_18gazs8rs5r0o-stroke" data-item-order="-20154" data-item-id="1.cu_sy_18gazs8rs5r0o" data-item-class="ScenePart Indexed Indexed_1 Fill Stroke ColorFillGray" data-item-index="1" data-renderer-id="0" transform="translate(266, 80)"><g id="1.cu_sy_18gazs8rs5r0o-stroke" fill="none" stroke-linecap="round" stroke-linejoin="round" stroke-miterlimit="4" stroke="#93c131" stroke-width="2"><g><path d="M 20.598 19C 20.565 19 20.533 19 20.5 19C 14.701 19 10 23.701 10 29.5C 10 32.574 11.321 35.339 13.426 37.259C 13.147 38.459 13 39.712 13 41C 13 41.745 13.049 42.478 13.145 43.196C 11.788 45.301 11 47.809 11 50.5C 11 57.956 17.044 64 24.5 64C 24.847 64 25.19 63.987 25.53 63.961C 29.172 67.682 34.308 70 40 70C 45.641 70 50.737 67.723 54.373 64.059C 55.621 64.662 57.021 65 58.5 65C 63.747 65 68 60.747 68 55.5C 68 52.628 66.726 50.055 64.712 48.313C 67.948 45.469 70 41.232 70 36.5C 70 32.425 68.478 28.717 65.99 25.95C 65.996 25.801 66 25.651 66 25.5C 66 20.253 61.747 16 56.5 16C 55.92 16 55.353 16.052 54.802 16.151C 50.681 12.338 45.12 10 39 10C 31.475 10 24.794 13.535 20.598 19ZM 80 40C 80 44.418278 83.581722 48 88 48C 92.418278 48 96 44.418278 96 40C 96 35.581722 92.418278 32 88 32C 83.581722 32 80 35.581722 80 40M 114 40C 114 42.209137 112.209137 44 110 44C 107.790863 44 106 42.209137 106 40C 106 37.790863 107.790863 36 110 36C 112.209137 36 114 37.790863 114 40"></path></g></g></g><g id="g-root-tx_howtoimp_1cz8vc8rs5reu-stroke" data-item-order="0" data-item-id="tx_howtoimp_1cz8vc8rs5reu" data-item-class="Label Stroke SceneTarget SceneTitle ColorFillBlack ColorStrokeBlack" data-item-index="none" data-renderer-id="0" transform="translate(332, 2)"></g><g id="g-root-face_93d8korsieiu-stroke" data-item-order="0" data-item-id="face_93d8korsieiu" data-item-class="Icon Stroke SceneTarget ColorFillBlack ColorStrokeBlack" data-item-index="0" data-renderer-id="0" transform="translate(398, 74)"><g id="face_93d8korsieiu-stroke" fill="none" stroke-linecap="round" stroke-linejoin="round" stroke-miterlimit="4" stroke="#484848" stroke-width="2"><g><path d="M 46.599998 39.681999C 43.599998 36.681999 37.599998 35.181999 34.599998 38.181999M 16.9 45.681999C 16.6 44.482002 16.6 43.281998 16.6 41.781998C 16.6 25.581999 29.799999 12.382 46 12.382C 62.199997 12.382 75.399994 25.581999 75.399994 41.781998C 75.399994 52.582001 69.699997 61.882004 61 66.981995M 40.449997 77.800003C 46.449997 75.399994 45.324997 70.111 44.125 65.311005L 53.677002 61.612C 55.891281 60.755096 57.049278 58.316589 56.314003 56.059002L 56.313999 56.058998C 55.93375 54.891376 55.08989 53.931606 53.980541 53.405022C 52.871193 52.878433 51.594067 52.831413 50.449001 53.275002L 32.875 60.084999C 31.375 60.685001 29.575001 59.485001 29.575001 57.985001L 29.458 55.144001C 29.410076 53.986492 28.88414 52.900726 28.005583 52.145561C 27.127028 51.390404 25.974579 51.03352 24.823002 51.160004L 24.823 51.16C 22.704519 51.393932 21.100885 53.183647 21.1 55.315002L 21.1 67.584999C 21.1 75.385002 28.299999 81.084999 35.800003 79.284996C 35.800003 79.284996 38.949997 78.399994 40.449997 77.800003ZM 31.825001 27.681999C 31.20368 27.681999 30.700001 27.178322 30.700001 26.556999C 30.700001 25.93568 31.20368 25.431999 31.825001 25.431999M 31.825001 27.681999C 32.44632 27.681999 32.950001 27.178322 32.950001 26.556999C 32.950001 25.93568 32.44632 25.431999 31.825001 25.431999M 47.800003 27.681999C 47.17868 27.681999 46.675003 27.178322 46.675003 26.556999C 46.675003 25.93568 47.17868 25.431999 47.800003 25.431999M 47.800003 27.681999C 48.421322 27.681999 48.925003 27.178322 48.925003 26.556999C 48.925003 25.93568 48.421322 25.431999 47.800003 25.431999"></path></g></g></g><g id="g-root-tx_manualpr_8zme20rs5tzh-stroke" data-item-order="0" data-item-id="tx_manualpr_8zme20rs5tzh" data-item-class="Label Stroke SceneTarget Indexed Indexed_1 ColorFillBlack ColorStrokeBlack" data-item-index="1" data-renderer-id="0" transform="translate(98, 98)"></g><g id="g-root-lock_1cwqyzsrsl9mo-stroke" data-item-order="0" data-item-id="lock_1cwqyzsrsl9mo" data-item-class="Icon Stroke SceneTarget Indexed Indexed_1 InsideFill InsideGrayFill" data-item-index="1" data-renderer-id="0" transform="translate(278, 92)"><g id="lock_1cwqyzsrsl9mo-stroke" fill="none" stroke-linecap="round" stroke-linejoin="round" stroke-miterlimit="4" stroke="#93c131" stroke-width="2"><g><path d="M 29.144499 36.621998L 14.0335 36.621998C 12.30243 36.620346 10.9 35.216568 10.9 33.4855L 10.9 13.8865C 10.9 12.15543 12.30243 10.751656 14.033501 10.75L 37.553497 10.75C 39.285156 10.750828 40.688503 12.154844 40.688503 13.8865L 40.688499 23.390499M 10.897 16.8745L 40.688499 16.8745M 10.897 29.887001L 29.144499 29.887001M 10.897 23.390499L 40.688499 23.390499M 23.065001 16.8745L 23.065001 36.621998M 31.789 16.8745L 31.789 27.404499M 32.254002 36.327999C 32.253998 35.09613 33.252628 34.0975 34.484501 34.0975L 42.872501 34.0975C 44.103199 34.099155 45.099998 35.097298 45.099998 36.327999L 45.099998 43.019501C 45.099998 44.250202 44.103199 45.248344 42.872498 45.25L 34.484501 45.25C 33.252628 45.25 32.253998 44.251373 32.253998 43.019501ZM 38.678497 27.400002L 38.678497 27.400002C 36.26437 27.450024 34.347454 29.446838 34.396 31.861L 34.396 34.093002L 42.961002 34.093002L 42.961002 31.865499C 43.01207 29.449598 41.094421 27.45001 38.678497 27.4ZM 38.678497 38.1115C 38.019615 38.08456 37.410496 38.460789 37.139603 39.062012C 36.868713 39.663239 36.990433 40.368759 37.447121 40.84446C 37.903812 41.32016 38.603783 41.470535 39.215549 41.224373C 39.82732 40.978214 40.228065 40.384937 40.228001 39.725502C 40.245575 38.852013 39.551971 38.129539 38.678497 38.1115L 38.678497 38.1115"></path></g></g></g><g id="g-root-tran_23yjsrsl9u7-stroke" data-item-order="0" data-item-id="tran_23yjsrsl9u7" data-item-class="Icon Stroke SceneTarget Indexed InsideFill InsideGrayFill" data-item-index="2" data-renderer-id="0" transform="translate(554, 92)"><g id="tran_23yjsrsl9u7-stroke" fill="none" stroke-linecap="round" stroke-linejoin="round" stroke-miterlimit="4" stroke="#17b0e3" stroke-width="2"><g><path d="M 18.25 24.25L 12.1345 24.25C 11.338242 24.217514 10.718719 23.546307 10.75 22.75L 10.75 12.25C 10.719556 11.454002 11.338616 10.783298 12.134501 10.75L 27.365499 10.75C 28.161385 10.783298 28.780445 11.454002 28.750002 12.25L 28.75 21.25M 13.75 27.25L 18.25 27.25M 10.75 21.25L 28.75 21.25M 33.25 42.25L 33.25 45.203499M 27.25 45.25L 39.25 45.25M 45.25 39.550003C 45.328579 40.956844 44.256351 42.163097 42.849998 42.25L 23.650002 42.25C 22.244034 42.1623 21.172256 40.956551 21.25 39.549999L 21.25 26.950001C 21.173092 25.543739 22.244421 24.338493 23.65 24.25L 42.849998 24.25C 44.255962 24.3377 45.32774 25.543449 45.249996 26.949999ZM 21.248501 37.75L 45.25 37.75"></path></g></g></g><g id="g-root-tx_automate_1lt0gbsrs5rlv-stroke" data-item-order="0" data-item-id="tx_automate_1lt0gbsrs5rlv" data-item-class="Label Stroke SceneTarget Indexed ColorFillBlack ColorStrokeBlack" data-item-index="2" data-renderer-id="0" transform="translate(614, 98)"></g><g id="g-root-tx_timecons_v6pwo8rs5rlw-stroke" data-item-order="0" data-item-id="tx_timecons_v6pwo8rs5rlw" data-item-class="Label Stroke SceneTarget Indexed Indexed_1 ColorStrokeBlack" data-item-index="1" data-renderer-id="0" transform="translate(2, 134)"></g><g id="g-root-tx_streamli_de6y08rs5rsy-stroke" data-item-order="0" data-item-id="tx_streamli_de6y08rs5rsy" data-item-class="Label Stroke SceneTarget Indexed ColorStrokeBlack" data-item-index="2" data-renderer-id="0" transform="translate(614, 134)"></g></g></g></svg>