<?xml version="1.0" encoding="utf-8" standalone="yes"?>
<!DOCTYPE svg PUBLIC "-//W3C//DTD SVG 1.1//EN" "http://www.w3.org/Graphics/SVG/1.1/DTD/svg11.dtd">
<svg width="552" height="126" viewBox="0 0 552 126" style="fill:none;stroke:none;fill-rule:evenodd;clip-rule:evenodd;stroke-linecap:round;stroke-linejoin:round;stroke-miterlimit:1.5;" version="1.1" xmlns="http://www.w3.org/2000/svg" xmlns:xlink="http://www.w3.org/1999/xlink"><style id="fontImports">@import url("https://fonts.googleapis.com/css2?family=Roboto:wght@400;700&amp;display=block");</style><g id="items" style="isolation: isolate"><g id="blend" style="mix-blend-mode:multiply"><g id="g-root-1_147drigr86lfy-fill" data-item-order="0" data-item-id="1_147drigr86lfy" data-item-class="Icon Stroke SceneTarget Indexed" data-item-index="none" data-renderer-id="0" transform="translate(50, 8)"></g><g id="g-root-2_6ic20r88007-fill" data-item-order="0" data-item-id="2_6ic20r88007" data-item-class="Icon Stroke SceneTarget Indexed" data-item-index="none" data-renderer-id="0" transform="translate(182, 8)"></g><g id="g-root-bars_1hgyumgr87z0g-fill" data-item-order="0" data-item-id="bars_1hgyumgr87z0g" data-item-class="Icon Stroke SceneTarget Indexed" data-item-index="none" data-renderer-id="0" transform="translate(314, 8)"></g><g id="g-root-fold_1uooih4r89dky-fill" data-item-order="0" data-item-id="fold_1uooih4r89dky" data-item-class="Icon Stroke SceneTarget Indexed" data-item-index="none" data-renderer-id="0" transform="translate(446, 8)"></g><g id="g-root-tx_aioptimi_18fphfsr8nfnl-fill" data-item-order="0" data-item-id="tx_aioptimi_18fphfsr8nfnl" data-item-class="Label Stroke SceneTarget Indexed" data-item-index="none" data-renderer-id="0" transform="translate(8, 56)"><g id="tx_aioptimi_18fphfsr8nfnl-fill" stroke="none" fill="#484848"><g><text style="font: 20px Roboto, sans-serif; white-space: pre;"><tspan x="60.75" y="34" dominant-baseline="ideographic">AI </tspan><tspan x="14.49" y="58" dominant-baseline="ideographic">optimization</tspan></text></g></g></g><g id="g-root-tx_efficien_htexs8r8nfnm-fill" data-item-order="0" data-item-id="tx_efficien_htexs8r8nfnm" data-item-class="Label Stroke SceneTarget Indexed" data-item-index="none" data-renderer-id="0" transform="translate(152, 56)"><g id="tx_efficien_htexs8r8nfnm-fill" stroke="none" fill="#484848"><g><text style="font: 20px Roboto, sans-serif; white-space: pre;"><tspan x="15.72" y="34" dominant-baseline="ideographic">efficiency</tspan></text></g></g></g><g id="g-root-tx_dataanal_1q88g3sr8nfgj-fill" data-item-order="0" data-item-id="tx_dataanal_1q88g3sr8nfgj" data-item-class="Label Stroke SceneTarget Indexed" data-item-index="none" data-renderer-id="0" transform="translate(266, 56)"><g id="tx_dataanal_1q88g3sr8nfgj-fill" stroke="none" fill="#484848"><g><text style="font: 20px Roboto, sans-serif; white-space: pre;"><tspan x="17.44" y="34" dominant-baseline="ideographic">data analysis</tspan></text></g></g></g><g id="g-root-tx_resource_1cwrxqgr8nh1g-fill" data-item-order="0" data-item-id="tx_resource_1cwrxqgr8nh1g" data-item-class="Label Stroke SceneTarget Indexed" data-item-index="none" data-renderer-id="0" transform="translate(416, 56)"><g id="tx_resource_1cwrxqgr8nh1g-fill" stroke="none" fill="#484848"><g><text style="font: 20px Roboto, sans-serif; white-space: pre;"><tspan x="19.14" y="34" dominant-baseline="ideographic">resource </tspan><tspan x="14.33" y="58" dominant-baseline="ideographic">allocation</tspan></text></g></g></g><g id="g-root-1_147drigr86lfy-stroke" data-item-order="0" data-item-id="1_147drigr86lfy" data-item-class="Icon Stroke SceneTarget Indexed" data-item-index="none" data-renderer-id="0" transform="translate(50, 8)"><g id="1_147drigr86lfy-stroke" fill="none" stroke-linecap="round" stroke-linejoin="round" stroke-miterlimit="4" stroke="#e3cd09" stroke-width="2"><g><path d="M 24.641499 38.195503L 16.796501 32.5555M 20.569 28.259501L 27.0175 33.040001M 11.2315 27.826C 11.231501 30.409864 13.326136 32.504501 15.91 32.504501C 18.493864 32.504501 20.588501 30.409864 20.588501 27.826C 20.588501 25.242136 18.493864 23.147501 15.91 23.147501C 13.326136 23.147501 11.231501 25.242136 11.231501 27.826M 20.195499 25.949501L 27.1975 19.130501M 25.048 14.2135L 15.628 23.1565M 24.91 15.4555C 24.909609 17.71821 26.74379 19.552708 29.0065 19.552708C 31.269209 19.552708 33.10339 17.71821 33.103001 15.4555C 33.10339 13.192789 31.269209 11.358293 29.0065 11.358293C 26.74379 11.358293 24.909609 13.192789 24.91 15.4555M 32.799999 17.0035L 36.511002 20.799999C 37.284115 21.589621 37.301277 22.847076 36.550003 23.657501L 36.550003 23.657499C 36.164181 24.072927 35.62495 24.312063 35.058037 24.319149C 34.491127 24.326235 33.946087 24.100653 33.550003 23.695002L 29.469999 19.526501M 11.623 44.642498L 44.623001 44.642498M 24.641499 41.003502L 24.641499 36.920502C 24.685606 34.540901 26.627241 32.634918 29.00725 32.634918C 31.38726 32.634918 33.328896 34.540901 33.373001 36.920502L 33.373001 40.940502M 15.16 27.577C 15.16 27.991215 15.495787 28.327 15.91 28.327C 16.324213 28.327 16.66 27.991215 16.66 27.577C 16.66 27.162786 16.324213 26.827 15.91 26.827C 15.495787 26.827 15.16 27.162786 15.16 27.577M 28.2565 36.887497C 28.2565 37.301716 28.592285 37.637497 29.0065 37.637497C 29.420713 37.637497 29.7565 37.301716 29.7565 36.887497C 29.7565 36.473286 29.420713 36.137497 29.0065 36.137497C 28.592285 36.137497 28.2565 36.473286 28.2565 36.887497M 23.768499 41.003502L 34.174 41.003502C 35.002426 41.003502 35.674 41.675072 35.674 42.503502L 35.674 44.642498L 35.674 44.642498L 22.268499 44.642498L 22.268499 44.642498L 22.268499 42.503502C 22.268499 41.675072 22.940073 41.003502 23.768499 41.003502ZM 36.099998 20.363501C 36.3843 20.007441 36.788437 19.766983 37.237 19.687C 39.099014 19.346226 41.016228 19.849552 42.47073 21.061012C 43.925236 22.27247 44.766953 24.067062 44.768501 25.960001C 44.768501 26.995533 43.929035 27.835001 42.893501 27.835001C 41.857964 27.835001 41.018501 26.995533 41.018501 25.960001C 41.017418 25.177616 40.667995 24.436344 40.06517 23.937614C 39.462341 23.438885 38.668739 23.234501 37.900002 23.380001C 37.613728 23.430599 37.319649 23.414688 37.040501 23.333502M 35.682999 24.139C 35.746315 24.492697 35.706745 24.857134 35.569 25.189001C 35.261162 25.908453 35.289959 26.727671 35.64756 27.423731C 36.005161 28.119791 36.654358 28.620277 37.418503 28.789C 38.430008 29.011847 39.069347 30.012491 38.846497 31.024C 38.623653 32.035511 37.623009 32.674847 36.6115 32.452C 34.764919 32.0425 33.195259 30.834705 32.326286 29.154696C 31.457315 27.474686 31.378641 25.495691 32.1115 23.751999C 32.215866 23.499063 32.374619 23.272198 32.5765 23.087502"></path></g></g></g><g id="g-root-2_6ic20r88007-stroke" data-item-order="0" data-item-id="2_6ic20r88007" data-item-class="Icon Stroke SceneTarget Indexed" data-item-index="none" data-renderer-id="0" transform="translate(182, 8)"><g id="2_6ic20r88007-stroke" fill="none" stroke-linecap="round" stroke-linejoin="round" stroke-miterlimit="4" stroke="#dd8433" stroke-width="2"><g><path d="M 24.25 28.001501C 24.25 30.072567 25.928932 31.751501 28 31.751501C 30.071068 31.751501 31.75 30.072567 31.75 28.001501C 31.75 25.930431 30.071068 24.251501 28 24.251501C 25.928932 24.251501 24.25 25.930431 24.25 28.001501ZM 16 28.001501C 16 34.628914 21.372583 40.001499 28 40.001499C 34.627419 40.001499 40 34.628914 40 28.001501C 40 21.374083 34.627419 16.001499 28 16.001499C 21.372583 16.001499 16 21.374083 16 28.001501ZM 28 16.001499L 28 10.7515M 36.4855 19.515999L 40.197998 15.8035M 40 28.001501L 45.25 28.001501M 36.4855 36.487L 40.197998 40.199501M 28 40.001499L 28 45.251499M 19.5145 36.487L 15.802 40.199501M 16 28.001501L 10.75 28.001501M 19.5145 19.515999L 15.802 15.8035"></path></g></g></g><g id="g-root-bars_1hgyumgr87z0g-stroke" data-item-order="0" data-item-id="bars_1hgyumgr87z0g" data-item-class="Icon Stroke SceneTarget Indexed" data-item-index="none" data-renderer-id="0" transform="translate(314, 8)"><g id="bars_1hgyumgr87z0g-stroke" fill="none" stroke-linecap="round" stroke-linejoin="round" stroke-miterlimit="4" stroke="#da5da8" stroke-width="2"><g><path d="M 10.6615 39.25L 45.161499 39.25M 16.661499 39.25L 16.661499 32.5C 16.661499 32.085785 16.325714 31.75 15.9115 31.75L 12.9115 31.75C 12.497287 31.75 12.1615 32.085785 12.1615 32.5L 12.1615 39.25M 25.661499 39.25L 25.661499 25C 25.661499 24.585787 25.325714 24.25 24.911499 24.25L 21.911499 24.25C 21.497286 24.25 21.161499 24.585787 21.161499 25L 21.161499 39.25M 34.661499 39.25L 34.661499 28C 34.661499 27.585787 34.325714 27.25 33.911499 27.25L 30.911499 27.25C 30.497288 27.25 30.161499 27.585787 30.161499 28L 30.161499 39.25M 43.661499 39.25L 43.661499 17.5C 43.661499 17.085787 43.325714 16.75 42.911499 16.75L 39.911499 16.75C 39.497288 16.75 39.161499 17.085787 39.161499 17.5L 39.161499 39.25"></path></g></g></g><g id="g-root-fold_1uooih4r89dky-stroke" data-item-order="0" data-item-id="fold_1uooih4r89dky" data-item-class="Icon Stroke SceneTarget Indexed" data-item-index="none" data-renderer-id="0" transform="translate(446, 8)"><g id="fold_1uooih4r89dky-stroke" fill="none" stroke-linecap="round" stroke-linejoin="round" stroke-miterlimit="4" stroke="#b65edf" stroke-width="2"><g><path d="M 44.714287 34.531429C 44.714287 33.111267 43.563019 31.959999 42.142857 31.959999L 34.42857 31.959999L 34.42857 34.531429L 21.571428 34.531429L 21.571428 31.959999L 13.857142 31.959999C 12.436982 31.959999 11.285714 33.111267 11.285714 34.531429L 11.285714 42.245712C 11.285714 43.665874 12.436982 44.817142 13.857142 44.817142L 42.142857 44.817142C 43.563019 44.817142 44.714287 43.665874 44.714287 42.245712ZM 13.857142 24.245714L 42.142857 24.245714M 13.857142 16.531429L 42.142857 16.531429"></path></g></g></g><g id="g-root-tx_aioptimi_18fphfsr8nfnl-stroke" data-item-order="0" data-item-id="tx_aioptimi_18fphfsr8nfnl" data-item-class="Label Stroke SceneTarget Indexed" data-item-index="none" data-renderer-id="0" transform="translate(8, 56)"></g><g id="g-root-tx_efficien_htexs8r8nfnm-stroke" data-item-order="0" data-item-id="tx_efficien_htexs8r8nfnm" data-item-class="Label Stroke SceneTarget Indexed" data-item-index="none" data-renderer-id="0" transform="translate(152, 56)"></g><g id="g-root-tx_dataanal_1q88g3sr8nfgj-stroke" data-item-order="0" data-item-id="tx_dataanal_1q88g3sr8nfgj" data-item-class="Label Stroke SceneTarget Indexed" data-item-index="none" data-renderer-id="0" transform="translate(266, 56)"></g><g id="g-root-tx_resource_1cwrxqgr8nh1g-stroke" data-item-order="0" data-item-id="tx_resource_1cwrxqgr8nh1g" data-item-class="Label Stroke SceneTarget Indexed" data-item-index="none" data-renderer-id="0" transform="translate(416, 56)"></g></g></g></svg>