<?xml version="1.0" encoding="utf-8" standalone="yes"?>
<!DOCTYPE svg PUBLIC "-//W3C//DTD SVG 1.1//EN" "http://www.w3.org/Graphics/SVG/1.1/DTD/svg11.dtd">
<svg width="558" height="126" viewBox="0 0 558 126" style="fill:none;stroke:none;fill-rule:evenodd;clip-rule:evenodd;stroke-linecap:round;stroke-linejoin:round;stroke-miterlimit:1.5;" version="1.1" xmlns="http://www.w3.org/2000/svg" xmlns:xlink="http://www.w3.org/1999/xlink"><style id="fontImports">@import url("https://fonts.googleapis.com/css2?family=Roboto:wght@400;700&amp;display=block");</style><g id="items" style="isolation: isolate"><g id="blend" style="mix-blend-mode:multiply"><g id="g-root-time_hunss8tq2ya1-fill" data-item-order="0" data-item-id="time_hunss8tq2ya1" data-item-class="Icon Stroke SceneTarget Indexed" data-item-index="none" data-renderer-id="0" transform="translate(50, 8)"></g><g id="g-root-warn_8x5da0tq4e85-fill" data-item-order="0" data-item-id="warn_8x5da0tq4e85" data-item-class="Icon Stroke SceneTarget Indexed" data-item-index="none" data-renderer-id="0" transform="translate(182, 8)"></g><g id="g-root-chec_18gycfstq4bny-fill" data-item-order="0" data-item-id="chec_18gycfstq4bny" data-item-class="Icon Stroke SceneTarget Indexed" data-item-index="none" data-renderer-id="0" transform="translate(314, 8)"></g><g id="g-root-squa_zs6k54tq2xhm-fill" data-item-order="0" data-item-id="squa_zs6k54tq2xhm" data-item-class="Icon Stroke SceneTarget Indexed" data-item-index="none" data-renderer-id="0" transform="translate(446, 8)"></g><g id="g-root-tx_realtime_1d0ilx4tql7nv-fill" data-item-order="0" data-item-id="tx_realtime_1d0ilx4tql7nv" data-item-class="Label Stroke SceneTarget Indexed" data-item-index="none" data-renderer-id="0" transform="translate(8, 56)"><g id="tx_realtime_1d0ilx4tql7nv-fill" stroke="none" fill="#484848"><g><text style="font: 20px Roboto, sans-serif; white-space: pre;"><tspan x="31.03" y="34" dominant-baseline="ideographic">real-time </tspan><tspan x="14.8" y="58" dominant-baseline="ideographic">notifications</tspan></text></g></g></g><g id="g-root-tx_immediat_v9v2igtql6v8-fill" data-item-order="0" data-item-id="tx_immediat_v9v2igtql6v8" data-item-class="Label Stroke SceneTarget Indexed" data-item-index="none" data-renderer-id="0" transform="translate(146, 56)"><g id="tx_immediat_v9v2igtql6v8-fill" stroke="none" fill="#484848"><g><text style="font: 20px Roboto, sans-serif; white-space: pre;"><tspan x="14.19" y="34" dominant-baseline="ideographic">immediate </tspan><tspan x="25.6" y="58" dominant-baseline="ideographic">updates</tspan></text></g></g></g><g id="g-root-tx_alerts_93e0zctql631-fill" data-item-order="0" data-item-id="tx_alerts_93e0zctql631" data-item-class="Label Stroke SceneTarget Indexed" data-item-index="none" data-renderer-id="0" transform="translate(302, 56)"><g id="tx_alerts_93e0zctql631-fill" stroke="none" fill="#484848"><g><text style="font: 20px Roboto, sans-serif; white-space: pre;"><tspan x="14.78" y="34" dominant-baseline="ideographic">alerts</tspan></text></g></g></g><g id="g-root-tx_communic_1qd82gotql892-fill" data-item-order="0" data-item-id="tx_communic_1qd82gotql892" data-item-class="Label Stroke SceneTarget Indexed" data-item-index="none" data-renderer-id="0" transform="translate(392, 56)"><g id="tx_communic_1qd82gotql892-fill" stroke="none" fill="#484848"><g><text style="font: 20px Roboto, sans-serif; white-space: pre;"><tspan x="12.49" y="34" dominant-baseline="ideographic">communication</tspan></text></g></g></g><g id="g-root-time_hunss8tq2ya1-stroke" data-item-order="0" data-item-id="time_hunss8tq2ya1" data-item-class="Icon Stroke SceneTarget Indexed" data-item-index="none" data-renderer-id="0" transform="translate(50, 8)"><g id="time_hunss8tq2ya1-stroke" fill="none" stroke-linecap="round" stroke-linejoin="round" stroke-miterlimit="4" stroke="#e3cd09" stroke-width="2"><g><path d="M 24.142857 44.714287L 29.285713 44.714287M 21.725714 16.428572C 18.455091 18.242437 16.426754 21.688641 16.428572 25.428572L 16.428572 34.42857C 16.428572 36.558811 14.70167 38.285713 12.571428 38.285713L 40.857143 38.285713C 38.726902 38.285713 37 36.558811 37 34.42857L 37 33.142857M 28 19C 28.000002 23.260483 31.453804 26.714285 35.714287 26.714285C 39.97477 26.714285 43.42857 23.260483 43.42857 19C 43.42857 14.739518 39.97477 11.285714 35.714287 11.285714C 31.453804 11.285714 28.000002 14.739518 28.000002 19M 35.714287 19L 37.642857 17.071428"></path></g></g></g><g id="g-root-warn_8x5da0tq4e85-stroke" data-item-order="0" data-item-id="warn_8x5da0tq4e85" data-item-class="Icon Stroke SceneTarget Indexed" data-item-index="none" data-renderer-id="0" transform="translate(182, 8)"><g id="warn_8x5da0tq4e85-stroke" fill="none" stroke-linecap="round" stroke-linejoin="round" stroke-miterlimit="4" stroke="#dd8433" stroke-width="2"><g><path d="M 19 44.714287L 13.857142 44.714287C 12.436982 44.714287 11.285714 43.563019 11.285714 42.142857L 11.285714 13.857142C 11.285714 12.436982 12.436982 11.285714 13.857142 11.285714L 42.142857 11.285714C 43.563019 11.285714 44.714287 12.436982 44.714287 13.857142L 44.714287 42.142857C 44.714287 43.563019 43.563019 44.714287 42.142857 44.714287L 37 44.714287M 11.285714 19L 44.714287 19M 28 26.714285L 28 35.714287M 26.714285 43.42857C 26.714285 44.138649 27.289919 44.714287 28 44.714287C 28.710081 44.714287 29.285713 44.138649 29.285713 43.42857C 29.285713 42.718491 28.710081 42.142857 28 42.142857C 27.289919 42.142857 26.714285 42.718491 26.714285 43.42857"></path></g></g></g><g id="g-root-chec_18gycfstq4bny-stroke" data-item-order="0" data-item-id="chec_18gycfstq4bny" data-item-class="Icon Stroke SceneTarget Indexed" data-item-index="none" data-renderer-id="0" transform="translate(314, 8)"><g id="chec_18gycfstq4bny-stroke" fill="none" stroke-linecap="round" stroke-linejoin="round" stroke-miterlimit="4" stroke="#da5da8" stroke-width="2"><g><path d="M 22.857143 44.714287L 28 44.714287M 25.428572 15.142857C 19.747929 15.142857 15.142857 19.747929 15.142857 25.428572L 15.142857 34.42857C 15.142857 36.558811 13.415956 38.285713 11.285714 38.285713L 39.571426 38.285713C 37.441189 38.285713 35.714287 36.558811 35.714287 34.42857L 35.714287 28M 44.714287 11.285714L 35.714287 21.571428L 31.857143 17.714285"></path></g></g></g><g id="g-root-squa_zs6k54tq2xhm-stroke" data-item-order="0" data-item-id="squa_zs6k54tq2xhm" data-item-class="Icon Stroke SceneTarget Indexed" data-item-index="none" data-renderer-id="0" transform="translate(446, 8)"><g id="squa_zs6k54tq2xhm-stroke" fill="none" stroke-linecap="round" stroke-linejoin="round" stroke-miterlimit="4" stroke="#b65edf" stroke-width="2"><g><path d="M 21.571428 42.142857L 11.285714 44.714287L 13.857142 37L 13.857142 13.857142C 13.857142 12.436982 15.00841 11.285714 16.428572 11.285714L 42.142857 11.285714C 43.563019 11.285714 44.714287 12.436982 44.714287 13.857142L 44.714287 39.571426C 44.714287 40.991589 43.563019 42.142857 42.142857 42.142857ZM 34.42857 11.285714L 29.285713 19L 35.714287 22.857143L 31.857143 28"></path></g></g></g><g id="g-root-tx_realtime_1d0ilx4tql7nv-stroke" data-item-order="0" data-item-id="tx_realtime_1d0ilx4tql7nv" data-item-class="Label Stroke SceneTarget Indexed" data-item-index="none" data-renderer-id="0" transform="translate(8, 56)"></g><g id="g-root-tx_immediat_v9v2igtql6v8-stroke" data-item-order="0" data-item-id="tx_immediat_v9v2igtql6v8" data-item-class="Label Stroke SceneTarget Indexed" data-item-index="none" data-renderer-id="0" transform="translate(146, 56)"></g><g id="g-root-tx_alerts_93e0zctql631-stroke" data-item-order="0" data-item-id="tx_alerts_93e0zctql631" data-item-class="Label Stroke SceneTarget Indexed" data-item-index="none" data-renderer-id="0" transform="translate(302, 56)"></g><g id="g-root-tx_communic_1qd82gotql892-stroke" data-item-order="0" data-item-id="tx_communic_1qd82gotql892" data-item-class="Label Stroke SceneTarget Indexed" data-item-index="none" data-renderer-id="0" transform="translate(392, 56)"></g></g></g></svg>