<?xml version="1.0" encoding="utf-8" standalone="yes"?>
<!DOCTYPE svg PUBLIC "-//W3C//DTD SVG 1.1//EN" "http://www.w3.org/Graphics/SVG/1.1/DTD/svg11.dtd">
<svg width="684" height="126" viewBox="0 0 684 126" style="fill:none;stroke:none;fill-rule:evenodd;clip-rule:evenodd;stroke-linecap:round;stroke-linejoin:round;stroke-miterlimit:1.5;" version="1.1" xmlns="http://www.w3.org/2000/svg" xmlns:xlink="http://www.w3.org/1999/xlink"><style id="fontImports">@import url("https://fonts.googleapis.com/css2?family=Roboto:wght@400;700&amp;display=block");</style><g id="items" style="isolation: isolate"><g id="blend" style="mix-blend-mode:multiply"><g id="g-root-regu_147z6nsrsa0b2-fill" data-item-order="0" data-item-id="regu_147z6nsrsa0b2" data-item-class="Icon Stroke SceneTarget Indexed" data-item-index="none" data-renderer-id="0" transform="translate(50, 8)"></g><g id="g-root-robo_hzmpvcrsbeo7-fill" data-item-order="0" data-item-id="robo_hzmpvcrsbeo7" data-item-class="Icon Stroke SceneTarget Indexed" data-item-index="none" data-renderer-id="0" transform="translate(182, 8)"></g><g id="g-root-2_1lymq2grsbf9c-fill" data-item-order="0" data-item-id="2_1lymq2grsbf9c" data-item-class="Icon Stroke SceneTarget Indexed" data-item-index="none" data-renderer-id="0" transform="translate(314, 8)"></g><g id="g-root-armc_1hap1tkrscsuh-fill" data-item-order="0" data-item-id="armc_1hap1tkrscsuh" data-item-class="Icon Stroke SceneTarget Indexed" data-item-index="none" data-renderer-id="0" transform="translate(446, 8)"></g><g id="g-root-whee_dcxzsorscufe-fill" data-item-order="0" data-item-id="whee_dcxzsorscufe" data-item-class="Icon Stroke SceneTarget Indexed" data-item-index="none" data-renderer-id="0" transform="translate(578, 8)"></g><g id="g-root-tx_seatingp_18n67p4rs4cni-fill" data-item-order="0" data-item-id="tx_seatingp_18n67p4rs4cni" data-item-class="Label Stroke SceneTarget Indexed" data-item-index="none" data-renderer-id="0" transform="translate(2, 56)"><g id="tx_seatingp_18n67p4rs4cni-fill" stroke="none" fill="#484848"><g><text style="font: 20px Roboto, sans-serif; white-space: pre;"><tspan x="21.69" y="34" dominant-baseline="ideographic">seating plan </tspan><tspan x="16.97" y="58" dominant-baseline="ideographic">management</tspan></text></g></g></g><g id="g-root-tx_aidriven_i0vo1krs4cnj-fill" data-item-order="0" data-item-id="tx_aidriven_i0vo1krs4cnj" data-item-class="Label Stroke SceneTarget Indexed" data-item-index="none" data-renderer-id="0" transform="translate(158, 56)"><g id="tx_aidriven_i0vo1krs4cnj-fill" stroke="none" fill="#484848"><g><text style="font: 20px Roboto, sans-serif; white-space: pre;"><tspan x="12.95" y="34" dominant-baseline="ideographic">AI-driven</tspan></text></g></g></g><g id="g-root-tx_optimize_1ulj33srs5r0g-fill" data-item-order="0" data-item-id="tx_optimize_1ulj33srs5r0g" data-item-class="Label Stroke SceneTarget Indexed" data-item-index="none" data-renderer-id="0" transform="translate(290, 56)"><g id="tx_optimize_1ulj33srs5r0g-fill" stroke="none" fill="#484848"><g><text style="font: 20px Roboto, sans-serif; white-space: pre;"><tspan x="13.63" y="34" dominant-baseline="ideographic">optimize</tspan></text></g></g></g><g id="g-root-tx_comfort_18efkhkrs5te1-fill" data-item-order="0" data-item-id="tx_comfort_18efkhkrs5te1" data-item-class="Label Stroke SceneTarget Indexed" data-item-index="none" data-renderer-id="0" transform="translate(422, 56)"><g id="tx_comfort_18efkhkrs5te1-fill" stroke="none" fill="#484848"><g><text style="font: 20px Roboto, sans-serif; white-space: pre;"><tspan x="16.22" y="34" dominant-baseline="ideographic">comfort</tspan></text></g></g></g><g id="g-root-tx_accessib_v3lj7crs5rt6-fill" data-item-order="0" data-item-id="tx_accessib_v3lj7crs5rt6" data-item-class="Label Stroke SceneTarget Indexed" data-item-index="none" data-renderer-id="0" transform="translate(536, 56)"><g id="tx_accessib_v3lj7crs5rt6-fill" stroke="none" fill="#484848"><g><text style="font: 20px Roboto, sans-serif; white-space: pre;"><tspan x="15.16" y="34" dominant-baseline="ideographic">accessibility</tspan></text></g></g></g><g id="g-root-regu_147z6nsrsa0b2-stroke" data-item-order="0" data-item-id="regu_147z6nsrsa0b2" data-item-class="Icon Stroke SceneTarget Indexed" data-item-index="none" data-renderer-id="0" transform="translate(50, 8)"><g id="regu_147z6nsrsa0b2-stroke" fill="none" stroke-linecap="round" stroke-linejoin="round" stroke-miterlimit="4" stroke="#e3cd09" stroke-width="2"><g><path d="M 16.375 16C 16.375 18.071068 18.053932 19.75 20.125 19.75C 22.196068 19.75 23.875 18.071068 23.875 16C 23.875 13.928932 22.196068 12.25 20.125 12.25C 18.053932 12.25 16.375 13.928932 16.375 16M 34.375 45.25C 33.202312 45.253201 32.22657 44.349495 32.140003 43.18L 31.719999 38.32C 31.62693 37.159592 30.664074 36.261795 29.5 36.25L 25.150002 36.25C 22.465698 36.23518 20.219746 34.208656 19.93 31.539999L 18.655001 25.405001C 18.431547 24.162462 19.257565 22.974009 20.500065 22.750359C 21.742565 22.526709 22.931152 23.352535 23.154999 24.594999L 24.43 30.82C 24.43 31 24.43 31.75 25.210001 31.75L 29.5 31.75C 32.999146 31.767242 35.910378 34.444542 36.220001 37.93L 36.639999 42.82C 36.690582 43.449879 36.473965 44.071999 36.043106 44.534241C 35.612251 44.996483 35.006878 45.256241 34.375 45.25ZM 11.875 25.75L 13.675 25.75C 14.38999 25.732525 15.017869 26.222271 15.175 26.92L 16.9 34.420002C 17.455624 37.214905 19.90045 39.233456 22.75 39.25L 27.055 39.25C 27.81794 39.244492 28.463465 39.812553 28.555 40.57L 28.93 43.57C 28.981741 43.997963 28.846857 44.427505 28.55975 44.749062C 28.272644 45.070621 27.861071 45.253117 27.43 45.25L 11.875 45.25M 44.125 22C 44.125 23.656855 42.781857 25 41.125 25L 36.625 25C 34.968143 25 33.625 23.656855 33.625 22L 33.625 13.75C 33.625 12.093145 34.968143 10.75 36.625 10.75L 41.125 10.75C 42.781857 10.75 44.125 12.093145 44.125 13.75Z"></path></g></g></g><g id="g-root-robo_hzmpvcrsbeo7-stroke" data-item-order="0" data-item-id="robo_hzmpvcrsbeo7" data-item-class="Icon Stroke SceneTarget Indexed" data-item-index="none" data-renderer-id="0" transform="translate(182, 8)"><g id="robo_hzmpvcrsbeo7-stroke" fill="none" stroke-linecap="round" stroke-linejoin="round" stroke-miterlimit="4" stroke="#dd8433" stroke-width="2"><g><path d="M 19 10.75L 37 10.75C 37 10.75 39.25 10.75 39.25 13L 39.25 22C 39.25 22 39.25 24.25 37 24.25L 19 24.25C 19 24.25 16.75 24.25 16.75 22L 16.75 13C 16.75 13 16.75 10.75 19 10.75M 19.75 17.5C 19.75 18.742641 20.75736 19.75 22 19.75C 23.242641 19.75 24.25 18.742641 24.25 17.5C 24.25 16.25736 23.242641 15.25 22 15.25C 20.75736 15.25 19.75 16.25736 19.75 17.5M 31.75 17.5C 31.75 18.742641 32.757362 19.75 34 19.75C 35.242641 19.75 36.25 18.742641 36.25 17.5C 36.25 16.25736 35.242641 15.25 34 15.25C 32.757362 15.25 31.75 16.25736 31.75 17.5M 25.75 27.25L 30.25 27.25M 25.75 30.25L 30.25 30.25M 33.010002 33.25L 22.99 33.25C 21.330721 33.249134 19.760065 33.99876 18.717138 35.289307C 17.674212 36.579857 17.270916 38.272858 17.620001 39.895004L 18.325001 44.650002C 18.390818 45.002525 18.701433 45.256092 19.059999 45.25L 37 45.25C 37.358566 45.256092 37.669186 45.002525 37.735001 44.650002L 38.439999 39.895C 38.791424 38.262524 38.380745 36.558842 37.324112 35.265778C 36.267479 33.972717 34.679768 33.230854 33.010002 33.25ZM 38.5 38.170002L 41.064999 35.755001C 42.718685 34.447445 43.471863 32.304684 43.000004 30.250002L 43 29.965M 44.5 24.25C 45.352238 25.386316 45.489323 26.906612 44.854103 28.177052C 44.21888 29.447491 42.920395 30.25 41.5 30.25C 40.319099 30.252373 39.206642 29.696144 38.5 28.750002M 17.5 38.170002L 14.965 35.755001C 13.30022 34.454636 12.534919 32.310619 13 30.250002L 13 29.950001M 11.5 24.25C 10.647763 25.386316 10.510678 26.906612 11.145898 28.177052C 11.781118 29.447491 13.079605 30.25 14.5 30.25C 15.680899 30.252373 16.793358 29.696144 17.5 28.750002M 34 45.25L 34 38.5C 34 38.085785 33.664215 37.75 33.25 37.75L 22.75 37.75C 22.335787 37.75 22 38.085785 22 38.5L 22 45.25"></path></g></g></g><g id="g-root-2_1lymq2grsbf9c-stroke" data-item-order="0" data-item-id="2_1lymq2grsbf9c" data-item-class="Icon Stroke SceneTarget Indexed" data-item-index="none" data-renderer-id="0" transform="translate(314, 8)"><g id="2_1lymq2grsbf9c-stroke" fill="none" stroke-linecap="round" stroke-linejoin="round" stroke-miterlimit="4" stroke="#da5da8" stroke-width="2"><g><path d="M 24.25 28.001501C 24.25 30.072567 25.928932 31.751501 28 31.751501C 30.071068 31.751501 31.75 30.072567 31.75 28.001501C 31.75 25.930431 30.071068 24.251501 28 24.251501C 25.928932 24.251501 24.25 25.930431 24.25 28.001501ZM 16 28.001501C 16 34.628914 21.372583 40.001499 28 40.001499C 34.627419 40.001499 40 34.628914 40 28.001501C 40 21.374083 34.627419 16.001499 28 16.001499C 21.372583 16.001499 16 21.374083 16 28.001501ZM 28 16.001499L 28 10.7515M 36.4855 19.515999L 40.197998 15.8035M 40 28.001501L 45.25 28.001501M 36.4855 36.487L 40.197998 40.199501M 28 40.001499L 28 45.251499M 19.5145 36.487L 15.802 40.199501M 16 28.001501L 10.75 28.001501M 19.5145 19.515999L 15.802 15.8035"></path></g></g></g><g id="g-root-armc_1hap1tkrscsuh-stroke" data-item-order="0" data-item-id="armc_1hap1tkrscsuh" data-item-class="Icon Stroke SceneTarget Indexed" data-item-index="none" data-renderer-id="0" transform="translate(446, 8)"><g id="armc_1hap1tkrscsuh-stroke" fill="none" stroke-linecap="round" stroke-linejoin="round" stroke-miterlimit="4" stroke="#b65edf" stroke-width="2"><g><path d="M 25 19.75L 26.934999 21.684999M 31 19.75L 29.065001 21.684999M 31 25.75L 29.065001 23.815001M 25 25.75L 26.934999 23.815001M 18.25 42.25L 18.25 45.25M 37.75 42.25L 37.75 45.25M 42.25 39.310001C 42.25 40.966854 40.906857 42.310001 39.25 42.310001L 16.75 42.310001C 15.093145 42.310001 13.75 40.966854 13.75 39.310001L 13.75 37C 13.750654 35.684597 14.608135 34.523045 15.865 34.135002C 19.786539 32.81591 23.86861 32.033806 28 31.809999C 32.130005 32.024105 36.212044 32.796112 40.135002 34.105C 41.402515 34.496269 42.262589 35.673531 42.25 37ZM 19.57 33.055C 19.691717 32.651291 19.752388 32.231651 19.75 31.809999C 19.756655 29.501747 18.015732 27.562773 15.720099 27.321648C 13.424465 27.080521 11.318655 28.615446 10.845552 30.874704C 10.372451 33.133965 11.685495 35.384819 13.885 36.085003M 36.43 33.055C 36.308281 32.651291 36.247612 32.231651 36.25 31.809999C 36.243347 29.501747 37.984268 27.562773 40.279903 27.321648C 42.575535 27.080521 44.681347 28.615446 45.154449 30.874704C 45.627548 33.133965 44.314507 35.384819 42.114998 36.085003M 41.125 27.325001C 42.494293 22.213741 40.751221 16.773766 36.666397 13.410112C 32.581577 10.046458 26.908249 9.379385 22.154617 11.703809C 17.40099 14.028233 14.443628 18.915527 14.59 24.205C 14.59094 25.251238 14.716832 26.293621 14.965 27.309999M 26.5 22.75C 26.5 23.578428 27.171572 24.25 28 24.25C 28.828428 24.25 29.5 23.578428 29.5 22.75C 29.5 21.921574 28.828428 21.25 28 21.25C 27.171572 21.25 26.5 21.921574 26.5 22.75"></path></g></g></g><g id="g-root-whee_dcxzsorscufe-stroke" data-item-order="0" data-item-id="whee_dcxzsorscufe" data-item-class="Icon Stroke SceneTarget Indexed" data-item-index="none" data-renderer-id="0" transform="translate(578, 8)"><g id="whee_dcxzsorscufe-stroke" fill="none" stroke-linecap="round" stroke-linejoin="round" stroke-miterlimit="4" stroke="#795ee3" stroke-width="2"><g><path d="M 11.285714 35.714287C 11.285715 40.684849 15.315152 44.714287 20.285713 44.714287C 25.256277 44.714287 29.285713 40.684849 29.285713 35.714287C 29.285713 30.743725 25.256277 26.714287 20.285713 26.714287C 15.315152 26.714287 11.285715 30.743725 11.285715 35.714287M 20.799999 26.74L 17.714285 11.285714L 11.285714 11.285714M 29.182858 37L 38.054283 37C 38.435581 37.012314 38.799412 36.839973 39.031429 36.53714C 39.283741 36.258678 39.388733 35.876892 39.314285 35.508572L 37.719997 25.865715C 37.301189 23.360798 35.116589 21.536659 32.577141 21.571428L 19.719999 21.571428M 38.491428 30.571428L 27.665714 30.571428M 39.571426 42.142857C 39.571426 43.563019 40.722694 44.714287 42.142857 44.714287C 43.563019 44.714287 44.714287 43.563019 44.714287 42.142857C 44.714287 40.722694 43.563019 39.571426 42.142857 39.571426C 40.722694 39.571426 39.571426 40.722694 39.571426 42.142857M 38.054283 37L 40.317142 40.317142"></path></g></g></g><g id="g-root-tx_seatingp_18n67p4rs4cni-stroke" data-item-order="0" data-item-id="tx_seatingp_18n67p4rs4cni" data-item-class="Label Stroke SceneTarget Indexed" data-item-index="none" data-renderer-id="0" transform="translate(2, 56)"></g><g id="g-root-tx_aidriven_i0vo1krs4cnj-stroke" data-item-order="0" data-item-id="tx_aidriven_i0vo1krs4cnj" data-item-class="Label Stroke SceneTarget Indexed" data-item-index="none" data-renderer-id="0" transform="translate(158, 56)"></g><g id="g-root-tx_optimize_1ulj33srs5r0g-stroke" data-item-order="0" data-item-id="tx_optimize_1ulj33srs5r0g" data-item-class="Label Stroke SceneTarget Indexed" data-item-index="none" data-renderer-id="0" transform="translate(290, 56)"></g><g id="g-root-tx_comfort_18efkhkrs5te1-stroke" data-item-order="0" data-item-id="tx_comfort_18efkhkrs5te1" data-item-class="Label Stroke SceneTarget Indexed" data-item-index="none" data-renderer-id="0" transform="translate(422, 56)"></g><g id="g-root-tx_accessib_v3lj7crs5rt6-stroke" data-item-order="0" data-item-id="tx_accessib_v3lj7crs5rt6" data-item-class="Label Stroke SceneTarget Indexed" data-item-index="none" data-renderer-id="0" transform="translate(536, 56)"></g></g></g></svg>