<?xml version="1.0" encoding="utf-8" standalone="yes"?>
<!DOCTYPE svg PUBLIC "-//W3C//DTD SVG 1.1//EN" "http://www.w3.org/Graphics/SVG/1.1/DTD/svg11.dtd">
<svg width="684" height="126" viewBox="0 0 684 126" style="fill:none;stroke:none;fill-rule:evenodd;clip-rule:evenodd;stroke-linecap:round;stroke-linejoin:round;stroke-miterlimit:1.5;" version="1.1" xmlns="http://www.w3.org/2000/svg" xmlns:xlink="http://www.w3.org/1999/xlink"><style id="fontImports">@import url("https://fonts.googleapis.com/css2?family=Roboto:wght@400;700&amp;display=block");</style><g id="items" style="isolation: isolate"><g id="blend" style="mix-blend-mode:multiply"><g id="g-root-bars_mah7qwuk7b46-fill" data-item-order="0" data-item-id="bars_mah7qwuk7b46" data-item-class="Icon Stroke SceneTarget Indexed" data-item-index="none" data-renderer-id="0" transform="translate(50, 8)"></g><g id="g-root-on_3dp4ouk7dhr-fill" data-item-order="0" data-item-id="on_3dp4ouk7dhr" data-item-class="Icon Stroke SceneTarget Indexed" data-item-index="none" data-renderer-id="0" transform="translate(182, 8)"></g><g id="g-root-data_vbqhrsukcxdt-fill" data-item-order="0" data-item-id="data_vbqhrsukcxdt" data-item-class="Icon Stroke SceneTarget Indexed" data-item-index="none" data-renderer-id="0" transform="translate(314, 8)"></g><g id="g-root-metr_1cy0pkouk7da8-fill" data-item-order="0" data-item-id="metr_1cy0pkouk7da8" data-item-class="Icon Stroke SceneTarget Indexed" data-item-index="none" data-renderer-id="0" transform="translate(446, 8)"></g><g id="g-root-incr_qrjo1kuk7ci1-fill" data-item-order="0" data-item-id="incr_qrjo1kuk7ci1" data-item-class="Icon Stroke SceneTarget Indexed" data-item-index="none" data-renderer-id="0" transform="translate(578, 8)"></g><g id="g-root-tx_analytic_1cwrreguk366i-fill" data-item-order="0" data-item-id="tx_analytic_1cwrreguk366i" data-item-class="Label Stroke SceneTarget Indexed" data-item-index="none" data-renderer-id="0" transform="translate(26, 56)"><g id="tx_analytic_1cwrreguk366i-fill" stroke="none" fill="#484848"><g><text style="font: 20px Roboto, sans-serif; white-space: pre;"><tspan x="12.36" y="34" dominant-baseline="ideographic">analytics</tspan></text></g></g></g><g id="g-root-tx_insights_v647zsuk35dv-fill" data-item-order="0" data-item-id="tx_insights_v647zsuk35dv" data-item-class="Label Stroke SceneTarget Indexed" data-item-index="none" data-renderer-id="0" transform="translate(158, 56)"><g id="tx_insights_v647zsuk35dv-fill" stroke="none" fill="#484848"><g><text style="font: 20px Roboto, sans-serif; white-space: pre;"><tspan x="16.93" y="34" dominant-baseline="ideographic">insights</tspan></text></g></g></g><g id="g-root-tx_data_hva6pkuk33t0-fill" data-item-order="0" data-item-id="tx_data_hva6pkuk33t0" data-item-class="Label Stroke SceneTarget Indexed" data-item-index="none" data-renderer-id="0" transform="translate(308, 56)"><g id="tx_data_hva6pkuk33t0-fill" stroke="none" fill="#484848"><g><text style="font: 20px Roboto, sans-serif; white-space: pre;"><tspan x="14.21" y="34" dominant-baseline="ideographic">data</tspan></text></g></g></g><g id="g-root-tx_performa_4jtoc8uk35dx-fill" data-item-order="0" data-item-id="tx_performa_4jtoc8uk35dx" data-item-class="Label Stroke SceneTarget Indexed" data-item-index="none" data-renderer-id="0" transform="translate(398, 56)"><g id="tx_performa_4jtoc8uk35dx-fill" stroke="none" fill="#484848"><g><text style="font: 20px Roboto, sans-serif; white-space: pre;"><tspan x="16.34" y="34" dominant-baseline="ideographic">performance </tspan><tspan x="39.98" y="58" dominant-baseline="ideographic">metrics</tspan></text></g></g></g><g id="g-root-tx_improvem_1qa3p14uk33ly-fill" data-item-order="0" data-item-id="tx_improvem_1qa3p14uk33ly" data-item-class="Label Stroke SceneTarget Indexed" data-item-index="none" data-renderer-id="0" transform="translate(530, 56)"><g id="tx_improvem_1qa3p14uk33ly-fill" stroke="none" fill="#484848"><g><text style="font: 20px Roboto, sans-serif; white-space: pre;"><tspan x="17.35" y="34" dominant-baseline="ideographic">improvement</tspan></text></g></g></g><g id="g-root-bars_mah7qwuk7b46-stroke" data-item-order="0" data-item-id="bars_mah7qwuk7b46" data-item-class="Icon Stroke SceneTarget Indexed" data-item-index="none" data-renderer-id="0" transform="translate(50, 8)"><g id="bars_mah7qwuk7b46-stroke" fill="none" stroke-linecap="round" stroke-linejoin="round" stroke-miterlimit="4" stroke="#e3cd09" stroke-width="2"><g><path d="M 10.6615 39.25L 45.161499 39.25M 16.661499 39.25L 16.661499 32.5C 16.661499 32.085785 16.325714 31.75 15.9115 31.75L 12.9115 31.75C 12.497287 31.75 12.1615 32.085785 12.1615 32.5L 12.1615 39.25M 25.661499 39.25L 25.661499 25C 25.661499 24.585787 25.325714 24.25 24.911499 24.25L 21.911499 24.25C 21.497286 24.25 21.161499 24.585787 21.161499 25L 21.161499 39.25M 34.661499 39.25L 34.661499 28C 34.661499 27.585787 34.325714 27.25 33.911499 27.25L 30.911499 27.25C 30.497288 27.25 30.161499 27.585787 30.161499 28L 30.161499 39.25M 43.661499 39.25L 43.661499 17.5C 43.661499 17.085787 43.325714 16.75 42.911499 16.75L 39.911499 16.75C 39.497288 16.75 39.161499 17.085787 39.161499 17.5L 39.161499 39.25"></path></g></g></g><g id="g-root-on_3dp4ouk7dhr-stroke" data-item-order="0" data-item-id="on_3dp4ouk7dhr" data-item-class="Icon Stroke SceneTarget Indexed" data-item-index="none" data-renderer-id="0" transform="translate(182, 8)"><g id="on_3dp4ouk7dhr-stroke" fill="none" stroke-linecap="round" stroke-linejoin="round" stroke-miterlimit="4" stroke="#dd8433" stroke-width="2"><g><path d="M 37 30.571428C 37.016624 26.129648 33.790257 22.339975 29.402721 21.647717C 25.015186 20.955456 20.778736 23.567654 19.426962 27.798777C 18.07519 32.029896 20.012388 36.614479 23.988571 38.594288L 23.988571 43.017143C 24.00252 43.560936 24.447454 43.994465 24.991428 43.994286L 31.008572 43.994286C 31.552544 43.994465 31.99748 43.560936 32.011429 43.017143L 32.011429 38.517143C 35.032436 37.013283 36.958302 33.945793 37 30.571428ZM 28 12.082857L 28 15.94M 38.285713 15.76L 35.559998 18.511429M 44.148571 23.731428L 40.291428 23.731428M 17.714285 15.76L 20.440001 18.511429M 11.851429 23.731428L 15.708571 23.731428"></path></g></g></g><g id="g-root-data_vbqhrsukcxdt-stroke" data-item-order="0" data-item-id="data_vbqhrsukcxdt" data-item-class="Icon Stroke SceneTarget Indexed" data-item-index="none" data-renderer-id="0" transform="translate(314, 8)"><g id="data_vbqhrsukcxdt-stroke" fill="none" stroke-linecap="round" stroke-linejoin="round" stroke-miterlimit="4" stroke="#da5da8" stroke-width="2"><g><path d="M 11.285714 17.714285C 11.285715 21.264688 18.768955 24.142857 28.000002 24.142857C 37.231045 24.142857 44.714287 21.264688 44.714287 17.714285C 44.714287 14.163884 37.231045 11.285714 28.000002 11.285714C 18.768955 11.285714 11.285715 14.163884 11.285715 17.714285M 11.285714 17.714285L 11.285714 38.285713C 11.285714 41.834286 18.768572 44.714287 28 44.714287C 37.23143 44.714287 44.714287 41.834286 44.714287 38.285713L 44.714287 17.714285M 44.714287 28C 44.714287 31.548571 37.23143 34.42857 28 34.42857C 18.768572 34.42857 11.285714 31.548571 11.285714 28"></path></g></g></g><g id="g-root-metr_1cy0pkouk7da8-stroke" data-item-order="0" data-item-id="metr_1cy0pkouk7da8" data-item-class="Icon Stroke SceneTarget Indexed" data-item-index="none" data-renderer-id="0" transform="translate(446, 8)"><g id="metr_1cy0pkouk7da8-stroke" fill="none" stroke-linecap="round" stroke-linejoin="round" stroke-miterlimit="4" stroke="#b65edf" stroke-width="2"><g><path d="M 13.0495 13.0495L 42.9505 13.0495C 42.9505 13.0495 45.25 13.0495 45.25 15.349L 45.25 40.649502C 45.25 40.649502 45.25 42.949001 42.9505 42.949001L 13.0495 42.949001C 13.0495 42.949001 10.75 42.949001 10.75 40.649502L 10.75 15.349C 10.75 15.349 10.75 13.0495 13.0495 13.0495M 10.75 19.949499L 45.25 19.949499M 25.172501 33.455502C 24.147114 35.507217 21.935215 36.684868 19.660549 36.390137C 17.385883 36.095413 15.547158 34.392933 15.078534 32.147633C 14.609909 29.902336 15.614128 27.606493 17.580999 26.426498M 35.6665 36.432999C 33.162518 36.432156 30.992048 34.699455 30.43652 32.257877C 29.880991 29.816299 31.088129 27.3151 33.345249 26.230972C 35.602371 25.146843 38.309258 25.768076 39.86779 27.727898C 41.426319 29.687721 41.42205 32.464977 39.857498 34.419998M 22.056999 25.9345C 23.666748 26.473969 24.929073 27.739071 25.465 29.35M 14.0125 16.375C 14.012501 16.685661 14.26434 16.9375 14.575001 16.9375C 14.88566 16.9375 15.137501 16.685661 15.137501 16.375C 15.137501 16.064341 14.88566 15.8125 14.575001 15.8125C 14.26434 15.8125 14.012501 16.064341 14.012501 16.375M 18.320499 16.375C 18.320501 16.685661 18.57234 16.9375 18.883001 16.9375C 19.193661 16.9375 19.445501 16.685661 19.445501 16.375C 19.445501 16.064341 19.193661 15.8125 18.883001 15.8125C 18.57234 15.8125 18.320501 16.064341 18.320501 16.375M 22.630001 16.375C 22.630001 16.685661 22.88184 16.9375 23.192501 16.9375C 23.50316 16.9375 23.755001 16.685661 23.755001 16.375C 23.755001 16.064341 23.50316 15.8125 23.192501 15.8125C 22.88184 15.8125 22.630001 16.064341 22.630001 16.375"></path></g></g></g><g id="g-root-incr_qrjo1kuk7ci1-stroke" data-item-order="0" data-item-id="incr_qrjo1kuk7ci1" data-item-class="Icon Stroke SceneTarget Indexed" data-item-index="none" data-renderer-id="0" transform="translate(578, 8)"><g id="incr_qrjo1kuk7ci1-stroke" fill="none" stroke-linecap="round" stroke-linejoin="round" stroke-miterlimit="4" stroke="#795ee3" stroke-width="2"><g><path d="M 10.756 44.875L 45.256001 44.875M 16.75 44.875L 16.75 41.125C 16.75 40.710785 16.414213 40.375 16 40.375L 13 40.375C 12.585787 40.375 12.25 40.710785 12.25 41.125L 12.25 44.875M 25.75 44.875L 25.75 35.125C 25.75 34.710785 25.414213 34.375 25 34.375L 22 34.375C 21.585787 34.375 21.25 34.710785 21.25 35.125L 21.25 44.875M 34.75 44.875L 34.75 29.125C 34.75 28.710787 34.414215 28.375 34 28.375L 31 28.375C 30.585787 28.375 30.25 28.710787 30.25 29.125L 30.25 44.875M 43.75 44.875L 43.75 23.125C 43.75 22.710787 43.414215 22.375 43 22.375L 40 22.375C 39.585785 22.375 39.25 22.710787 39.25 23.125L 39.25 44.875M 14.506 29.875L 41.506001 11.875M 40.756001 17.875L 41.506001 11.875L 35.506001 11.125"></path></g></g></g><g id="g-root-tx_analytic_1cwrreguk366i-stroke" data-item-order="0" data-item-id="tx_analytic_1cwrreguk366i" data-item-class="Label Stroke SceneTarget Indexed" data-item-index="none" data-renderer-id="0" transform="translate(26, 56)"></g><g id="g-root-tx_insights_v647zsuk35dv-stroke" data-item-order="0" data-item-id="tx_insights_v647zsuk35dv" data-item-class="Label Stroke SceneTarget Indexed" data-item-index="none" data-renderer-id="0" transform="translate(158, 56)"></g><g id="g-root-tx_data_hva6pkuk33t0-stroke" data-item-order="0" data-item-id="tx_data_hva6pkuk33t0" data-item-class="Label Stroke SceneTarget Indexed" data-item-index="none" data-renderer-id="0" transform="translate(308, 56)"></g><g id="g-root-tx_performa_4jtoc8uk35dx-stroke" data-item-order="0" data-item-id="tx_performa_4jtoc8uk35dx" data-item-class="Label Stroke SceneTarget Indexed" data-item-index="none" data-renderer-id="0" transform="translate(398, 56)"></g><g id="g-root-tx_improvem_1qa3p14uk33ly-stroke" data-item-order="0" data-item-id="tx_improvem_1qa3p14uk33ly" data-item-class="Label Stroke SceneTarget Indexed" data-item-index="none" data-renderer-id="0" transform="translate(530, 56)"></g></g></g></svg>