<?xml version="1.0" encoding="utf-8" standalone="yes"?>
<!DOCTYPE svg PUBLIC "-//W3C//DTD SVG 1.1//EN" "http://www.w3.org/Graphics/SVG/1.1/DTD/svg11.dtd">
<svg width="684" height="126" viewBox="0 0 684 126" style="fill:none;stroke:none;fill-rule:evenodd;clip-rule:evenodd;stroke-linecap:round;stroke-linejoin:round;stroke-miterlimit:1.5;" version="1.1" xmlns="http://www.w3.org/2000/svg" xmlns:xlink="http://www.w3.org/1999/xlink"><style id="fontImports">@import url("https://fonts.googleapis.com/css2?family=Roboto:wght@400;700&amp;display=block");</style><g id="items" style="isolation: isolate"><g id="blend" style="mix-blend-mode:multiply"><g id="g-root-2_qqwkugsmedxr-fill" data-item-order="0" data-item-id="2_qqwkugsmedxr" data-item-class="Icon Stroke SceneTarget Indexed" data-item-index="none" data-renderer-id="0" transform="translate(50, 8)"></g><g id="g-root-chec_9091fssmed54-fill" data-item-order="0" data-item-id="chec_9091fssmed54" data-item-class="Icon Stroke SceneTarget Indexed" data-item-index="none" data-renderer-id="0" transform="translate(182, 8)"></g><g id="g-root-lock_1qd7gcosmefpr-fill" data-item-order="0" data-item-id="lock_1qd7gcosmefpr" data-item-class="Icon Stroke SceneTarget Indexed" data-item-index="none" data-renderer-id="0" transform="translate(314, 8)"></g><g id="g-root-hand_1qa32x4smefb5-fill" data-item-order="0" data-item-id="hand_1qa32x4smefb5" data-item-class="Icon Stroke SceneTarget Indexed" data-item-index="none" data-renderer-id="0" transform="translate(446, 8)"></g><g id="g-root-cog_143m1e0smeeiy-fill" data-item-order="0" data-item-id="cog_143m1e0smeeiy" data-item-class="Icon Stroke SceneTarget Indexed" data-item-index="none" data-renderer-id="0" transform="translate(578, 8)"></g><g id="g-root-tx_security_qteh6wsm60oy-fill" data-item-order="0" data-item-id="tx_security_qteh6wsm60oy" data-item-class="Label Stroke SceneTarget Indexed" data-item-index="none" data-renderer-id="0" transform="translate(26, 56)"><g id="tx_security_qteh6wsm60oy-fill" stroke="none" fill="#484848"><g><text style="font: 20px Roboto, sans-serif; white-space: pre;"><tspan x="16.99" y="34" dominant-baseline="ideographic">security</tspan></text></g></g></g><g id="g-root-tx_complian_4mxfnssm5zwr-fill" data-item-order="0" data-item-id="tx_complian_4mxfnssm5zwr" data-item-class="Label Stroke SceneTarget Indexed" data-item-index="none" data-renderer-id="0" transform="translate(146, 56)"><g id="tx_complian_4mxfnssm5zwr-fill" stroke="none" fill="#484848"><g><text style="font: 20px Roboto, sans-serif; white-space: pre;"><tspan x="12.34" y="34" dominant-baseline="ideographic">compliance</tspan></text></g></g></g><g id="g-root-tx_sensitiv_1d1qxzcsm5zpo-fill" data-item-order="0" data-item-id="tx_sensitiv_1d1qxzcsm5zpo" data-item-class="Label Stroke SceneTarget Indexed" data-item-index="none" data-renderer-id="0" transform="translate(278, 56)"><g id="tx_sensitiv_1d1qxzcsm5zpo-fill" stroke="none" fill="#484848"><g><text style="font: 20px Roboto, sans-serif; white-space: pre;"><tspan x="24.67" y="34" dominant-baseline="ideographic">sensitive </tspan><tspan x="12.38" y="58" dominant-baseline="ideographic">information</tspan></text></g></g></g><g id="g-root-tx_trust_vb3ekosm5yx1-fill" data-item-order="0" data-item-id="tx_trust_vb3ekosm5yx1" data-item-class="Label Stroke SceneTarget Indexed" data-item-index="none" data-renderer-id="0" transform="translate(440, 56)"><g id="tx_trust_vb3ekosm5yx1-fill" stroke="none" fill="#484848"><g><text style="font: 20px Roboto, sans-serif; white-space: pre;"><tspan x="13.41" y="34" dominant-baseline="ideographic">trust</tspan></text></g></g></g><g id="g-root-tx_protocol_hzmw7csm60hy-fill" data-item-order="0" data-item-id="tx_protocol_hzmw7csm60hy" data-item-class="Label Stroke SceneTarget Indexed" data-item-index="none" data-renderer-id="0" transform="translate(548, 56)"><g id="tx_protocol_hzmw7csm60hy-fill" stroke="none" fill="#484848"><g><text style="font: 20px Roboto, sans-serif; white-space: pre;"><tspan x="16.01" y="34" dominant-baseline="ideographic">protocols</tspan></text></g></g></g><g id="g-root-2_qqwkugsmedxr-stroke" data-item-order="0" data-item-id="2_qqwkugsmedxr" data-item-class="Icon Stroke SceneTarget Indexed" data-item-index="none" data-renderer-id="0" transform="translate(50, 8)"><g id="2_qqwkugsmedxr-stroke" fill="none" stroke-linecap="round" stroke-linejoin="round" stroke-miterlimit="4" stroke="#e3cd09" stroke-width="2"><g><path d="M 30.365715 43.968571L 28.848572 44.559998C 28.301453 44.765129 27.698547 44.765129 27.151428 44.559998L 25.634285 43.968571C 17.770609 40.885654 12.590505 33.309242 12.571428 24.862858L 12.571428 17.714285C 18.503632 18.559727 24.423199 16.093241 28 11.285714C 31.214285 15.965714 36.53714 18.177143 43.42857 17.714285L 43.42857 24.862858C 43.409496 33.309242 38.229393 40.885654 30.365715 43.968571Z"></path></g></g></g><g id="g-root-chec_9091fssmed54-stroke" data-item-order="0" data-item-id="chec_9091fssmed54" data-item-class="Icon Stroke SceneTarget Indexed" data-item-index="none" data-renderer-id="0" transform="translate(182, 8)"><g id="chec_9091fssmed54-stroke" fill="none" stroke-linecap="round" stroke-linejoin="round" stroke-miterlimit="4" stroke="#dd8433" stroke-width="2"><g><path d="M 34.42857 13.857142L 38.285713 13.857142C 39.705875 13.857142 40.857143 15.00841 40.857143 16.428572L 40.857143 42.142857C 40.857143 43.563019 39.705875 44.714287 38.285713 44.714287L 17.714285 44.714287C 16.294125 44.714287 15.142857 43.563019 15.142857 42.142857L 15.142857 16.428572C 15.142857 15.00841 16.294125 13.857142 17.714285 13.857142L 21.571428 13.857142M 24.142857 11.285714L 31.857143 11.285714C 31.857143 11.285714 34.42857 11.285714 34.42857 13.857142L 34.42857 15.142857C 34.42857 15.142857 34.42857 17.714285 31.857143 17.714285L 24.142857 17.714285C 24.142857 17.714285 21.571428 17.714285 21.571428 15.142857L 21.571428 13.857142C 21.571428 13.857142 21.571428 11.285714 24.142857 11.285714M 21.571428 31.857143L 26.714285 35.714287L 33.142857 25.428572"></path></g></g></g><g id="g-root-lock_1qd7gcosmefpr-stroke" data-item-order="0" data-item-id="lock_1qd7gcosmefpr" data-item-class="Icon Stroke SceneTarget Indexed" data-item-index="none" data-renderer-id="0" transform="translate(314, 8)"><g id="lock_1qd7gcosmefpr-stroke" fill="none" stroke-linecap="round" stroke-linejoin="round" stroke-miterlimit="4" stroke="#da5da8" stroke-width="2"><g><path d="M 44.875 23.5L 44.875 13.375C 44.875 12.13236 43.867641 11.125 42.625 11.125L 13.375 11.125C 12.13236 11.125 11.125 12.13236 11.125 13.375L 11.125 33.625C 11.125 34.867641 12.13236 35.875 13.375 35.875L 25 35.875M 18.076 18.799C 18.076 20.759058 19.664942 22.348 21.625 22.348C 23.585058 22.348 25.174 20.759058 25.174 18.799C 25.174 16.838942 23.585058 15.25 21.625 15.25C 19.664942 15.25 18.076 16.838942 18.076 18.799M 15.541 29.445999C 15.541 26.085901 18.2649 23.362001 21.625 23.362001C 24.985102 23.362001 27.709002 26.085901 27.709002 29.446001ZM 31.375 16.75L 38.125 16.75M 31.375 21.25L 40.375 21.25M 32.875 33.625L 42.625 33.625C 42.625 33.625 44.875 33.625 44.875 35.875L 44.875 42.625C 44.875 42.625 44.875 44.875 42.625 44.875L 32.875 44.875C 32.875 44.875 30.625 44.875 30.625 42.625L 30.625 35.875C 30.625 35.875 30.625 33.625 32.875 33.625M 32.5 33.656502L 32.5 31.375C 32.5 28.475506 34.850506 26.125002 37.75 26.125002C 40.649494 26.125002 43 28.475506 43 31.375002L 43 33.656502M 35.5 39.25L 37 40.75L 40 37.75"></path></g></g></g><g id="g-root-hand_1qa32x4smefb5-stroke" data-item-order="0" data-item-id="hand_1qa32x4smefb5" data-item-class="Icon Stroke SceneTarget Indexed" data-item-index="none" data-renderer-id="0" transform="translate(446, 8)"><g id="hand_1qa32x4smefb5-stroke" fill="none" stroke-linecap="round" stroke-linejoin="round" stroke-miterlimit="4" stroke="#b65edf" stroke-width="2"><g><path d="M 32.937141 27.074286L 26.714285 31.214285L 22.857143 27.357143L 29.285713 19.642857L 35.714287 19.642857L 42.142857 17.071428M 34.762856 33.914288L 42.142857 29.928572M 44.714287 32.5L 42.142857 32.5L 42.142857 15.785714L 44.714287 15.785714M 30.494286 28.694286L 35.714287 35.071426L 22.857143 40.214287L 13.857142 32.5M 13.857142 19.642857L 22.857143 19.642857L 26.148571 23.397142M 11.285714 18.357143L 13.857142 18.357143L 13.857142 33.785713L 11.285714 33.785713"></path></g></g></g><g id="g-root-cog_143m1e0smeeiy-stroke" data-item-order="0" data-item-id="cog_143m1e0smeeiy" data-item-class="Icon Stroke SceneTarget Indexed" data-item-index="none" data-renderer-id="0" transform="translate(578, 8)"><g id="cog_143m1e0smeeiy-stroke" fill="none" stroke-linecap="round" stroke-linejoin="round" stroke-miterlimit="4" stroke="#795ee3" stroke-width="2"><g><path d="M 23.448572 15.785714L 24.554285 12.931429C 24.935949 11.942324 25.885532 11.288846 26.945715 11.285714L 29.054285 11.285714C 30.114468 11.288846 31.064053 11.942324 31.445715 12.931429L 32.55143 15.785714L 36.305714 17.945713L 39.34 17.482857C 40.373337 17.342596 41.389069 17.840303 41.911427 18.742857L 42.940002 20.542856C 43.479549 21.460625 43.397755 22.615973 42.734283 23.448572L 40.857143 25.84L 40.857143 30.16L 42.785713 32.55143C 43.449184 33.384026 43.530975 34.539375 42.991428 35.457142L 41.962856 37.257145C 41.440498 38.159695 40.424767 38.657402 39.39143 38.517143L 36.357143 38.054283L 32.602856 40.214287L 31.497141 43.068569C 31.11548 44.057674 30.165895 44.711155 29.105713 44.714287L 26.945715 44.714287C 25.885532 44.711155 24.935949 44.057674 24.554285 43.068569L 23.448572 40.214287L 19.694286 38.054283L 16.66 38.517143C 15.626661 38.657402 14.61093 38.159695 14.088572 37.257145L 13.06 35.457142C 12.520451 34.539375 12.602245 33.384026 13.265715 32.55143L 15.142857 30.16L 15.142857 25.84L 13.214286 23.448572C 12.550817 22.615973 12.469022 21.460625 13.008572 20.542856L 14.037143 18.742857C 14.559502 17.840303 15.575233 17.342596 16.608572 17.482857L 19.642857 17.945713ZM 22.857143 28C 22.857143 30.840321 25.159678 33.142857 28 33.142857C 30.840321 33.142857 33.142857 30.840321 33.142857 28C 33.142857 25.159678 30.840321 22.857143 28 22.857143C 25.159678 22.857143 22.857143 25.159678 22.857143 28Z"></path></g></g></g><g id="g-root-tx_security_qteh6wsm60oy-stroke" data-item-order="0" data-item-id="tx_security_qteh6wsm60oy" data-item-class="Label Stroke SceneTarget Indexed" data-item-index="none" data-renderer-id="0" transform="translate(26, 56)"></g><g id="g-root-tx_complian_4mxfnssm5zwr-stroke" data-item-order="0" data-item-id="tx_complian_4mxfnssm5zwr" data-item-class="Label Stroke SceneTarget Indexed" data-item-index="none" data-renderer-id="0" transform="translate(146, 56)"></g><g id="g-root-tx_sensitiv_1d1qxzcsm5zpo-stroke" data-item-order="0" data-item-id="tx_sensitiv_1d1qxzcsm5zpo" data-item-class="Label Stroke SceneTarget Indexed" data-item-index="none" data-renderer-id="0" transform="translate(278, 56)"></g><g id="g-root-tx_trust_vb3ekosm5yx1-stroke" data-item-order="0" data-item-id="tx_trust_vb3ekosm5yx1" data-item-class="Label Stroke SceneTarget Indexed" data-item-index="none" data-renderer-id="0" transform="translate(440, 56)"></g><g id="g-root-tx_protocol_hzmw7csm60hy-stroke" data-item-order="0" data-item-id="tx_protocol_hzmw7csm60hy" data-item-class="Label Stroke SceneTarget Indexed" data-item-index="none" data-renderer-id="0" transform="translate(548, 56)"></g></g></g></svg>