<?xml version="1.0" encoding="utf-8" standalone="yes"?>
<!DOCTYPE svg PUBLIC "-//W3C//DTD SVG 1.1//EN" "http://www.w3.org/Graphics/SVG/1.1/DTD/svg11.dtd">
<svg width="552" height="126" viewBox="0 0 552 126" style="fill:none;stroke:none;fill-rule:evenodd;clip-rule:evenodd;stroke-linecap:round;stroke-linejoin:round;stroke-miterlimit:1.5;" version="1.1" xmlns="http://www.w3.org/2000/svg" xmlns:xlink="http://www.w3.org/1999/xlink"><style id="fontImports">@import url("https://fonts.googleapis.com/css2?family=Roboto:wght@400;700&amp;display=block");</style><g id="items" style="isolation: isolate"><g id="blend" style="mix-blend-mode:multiply"><g id="g-root-user_8x5da0smh8nd-fill" data-item-order="0" data-item-id="user_8x5da0smh8nd" data-item-class="Icon Stroke SceneTarget Indexed" data-item-index="none" data-renderer-id="0" transform="translate(50, 8)"></g><g id="g-root-3_zn6rg8smfsi5-fill" data-item-order="0" data-item-id="3_zn6rg8smfsi5" data-item-class="Icon Stroke SceneTarget Indexed" data-item-index="none" data-renderer-id="0" transform="translate(182, 8)"></g><g id="g-root-plai_qpoby0smh8gb-fill" data-item-order="0" data-item-id="plai_qpoby0smh8gb" data-item-class="Icon Stroke SceneTarget Indexed" data-item-index="none" data-renderer-id="0" transform="translate(314, 8)"></g><g id="g-root-on_4l2po8smftae-fill" data-item-order="0" data-item-id="on_4l2po8smftae" data-item-class="Icon Stroke SceneTarget Indexed" data-item-index="none" data-renderer-id="0" transform="translate(446, 8)"></g><g id="g-root-tx_studentd_zlxta0smbm6e-fill" data-item-order="0" data-item-id="tx_studentd_zlxta0smbm6e" data-item-class="Label Stroke SceneTarget Indexed" data-item-index="none" data-renderer-id="0" transform="translate(2, 56)"><g id="tx_studentd_zlxta0smbm6e-fill" stroke="none" fill="#484848"><g><text style="font: 20px Roboto, sans-serif; white-space: pre;"><tspan x="17.6" y="34" dominant-baseline="ideographic">student data </tspan><tspan x="25.86" y="58" dominant-baseline="ideographic">integration</tspan></text></g></g></g><g id="g-root-tx_educatio_dfgrqwsmble7-fill" data-item-order="0" data-item-id="tx_educatio_dfgrqwsmble7" data-item-class="Label Stroke SceneTarget Indexed" data-item-index="none" data-renderer-id="0" transform="translate(140, 56)"><g id="tx_educatio_dfgrqwsmble7-fill" stroke="none" fill="#484848"><g><text style="font: 20px Roboto, sans-serif; white-space: pre;"><tspan x="16.4" y="34" dominant-baseline="ideographic">educational </tspan><tspan x="14.83" y="58" dominant-baseline="ideographic">experiences</tspan></text></g></g></g><g id="g-root-tx_administ_1hegry0smblzc-fill" data-item-order="0" data-item-id="tx_administ_1hegry0smblzc" data-item-class="Label Stroke SceneTarget Indexed" data-item-index="none" data-renderer-id="0" transform="translate(260, 56)"><g id="tx_administ_1hegry0smblzc-fill" stroke="none" fill="#484848"><g><text style="font: 20px Roboto, sans-serif; white-space: pre;"><tspan x="17.48" y="34" dominant-baseline="ideographic">administrative </tspan><tspan x="38.24" y="58" dominant-baseline="ideographic">efficiency</tspan></text></g></g></g><g id="g-root-tx_personal_91iovssmbl6p-fill" data-item-order="0" data-item-id="tx_personal_91iovssmbl6p" data-item-class="Label Stroke SceneTarget Indexed" data-item-index="none" data-renderer-id="0" transform="translate(398, 56)"><g id="tx_personal_91iovssmbl6p-fill" stroke="none" fill="#484848"><g><text style="font: 20px Roboto, sans-serif; white-space: pre;"><tspan x="16.74" y="34" dominant-baseline="ideographic">personalized </tspan><tspan x="37.9" y="58" dominant-baseline="ideographic">learning</tspan></text></g></g></g><g id="g-root-user_8x5da0smh8nd-stroke" data-item-order="0" data-item-id="user_8x5da0smh8nd" data-item-class="Icon Stroke SceneTarget Indexed" data-item-index="none" data-renderer-id="0" transform="translate(50, 8)"><g id="user_8x5da0smh8nd-stroke" fill="none" stroke-linecap="round" stroke-linejoin="round" stroke-miterlimit="4" stroke="#e3cd09" stroke-width="2"><g><path d="M 40 29.5L 40 39.868C 40.035305 41.146656 39.028591 42.212429 37.75 42.250004L 18.25 42.25C 16.971413 42.212429 15.964698 41.146656 16 39.868L 16 29.5M 22.75 45.25L 33.25 45.25M 28 42.25L 28 45.25M 16 37.75L 40 37.75M 31 30.25L 37 24.25M 32.5 24.25L 37 24.25L 37 28.75M 25 30.25L 19 24.25M 23.5 24.25L 19 24.25L 19 28.75M 36.25 13.75C 36.25 15.406855 37.593143 16.75 39.25 16.75C 40.906857 16.75 42.25 15.406855 42.25 13.75C 42.25 12.093145 40.906857 10.75 39.25 10.75C 37.593143 10.75 36.25 12.093145 36.25 13.75ZM 39.25 16.75C 35.5 16.75 34 19 34 21.25L 44.5 21.25C 44.5 19 43 16.75 39.25 16.75ZM 13.75 13.75C 13.75 15.406855 15.093145 16.75 16.75 16.75C 18.406855 16.75 19.75 15.406855 19.75 13.75C 19.75 12.093145 18.406855 10.75 16.75 10.75C 15.093145 10.75 13.75 12.093145 13.75 13.75ZM 16.75 16.75C 13 16.75 11.5 19 11.5 21.25L 22 21.25C 22 19 20.5 16.75 16.75 16.75Z"></path></g></g></g><g id="g-root-3_zn6rg8smfsi5-stroke" data-item-order="0" data-item-id="3_zn6rg8smfsi5" data-item-class="Icon Stroke SceneTarget Indexed" data-item-index="none" data-renderer-id="0" transform="translate(182, 8)"><g id="3_zn6rg8smfsi5-stroke" fill="none" stroke-linecap="round" stroke-linejoin="round" stroke-miterlimit="4" stroke="#dd8433" stroke-width="2"><g><path d="M 13.75 11.5L 42.25 11.5C 42.25 11.5 45.25 11.5 45.25 14.5L 45.25 41.5C 45.25 41.5 45.25 44.5 42.25 44.5L 13.75 44.5C 13.75 44.5 10.75 44.5 10.75 41.5L 10.75 14.5C 10.75 14.5 10.75 11.5 13.75 11.5M 10.75 19L 45.25 19M 16 14.875C 16.207108 14.875 16.375 15.042893 16.375 15.25C 16.375 15.457107 16.207108 15.625 16 15.625C 15.792893 15.625 15.625 15.457107 15.625 15.25C 15.625 15.042893 15.792893 14.875 16 14.875M 20.5 14.875C 20.707108 14.875 20.875 15.042893 20.875 15.25C 20.875 15.457107 20.707108 15.625 20.5 15.625C 20.292892 15.625 20.125 15.457107 20.125 15.25C 20.125 15.042893 20.292892 14.875 20.5 14.875M 25 14.875C 25.207108 14.875 25.375 15.042893 25.375 15.25C 25.375 15.457107 25.207108 15.625 25 15.625C 24.792892 15.625 24.625 15.457107 24.625 15.25C 24.625 15.042893 24.792892 14.875 25 14.875M 18.372999 37.446999L 23.7505 25.616501L 29.128 37.446999M 19.84 34.220497L 27.660999 34.220497M 32.255501 30.993999L 38.7085 30.993999M 35.482002 27.7675L 35.482002 34.220497"></path></g></g></g><g id="g-root-plai_qpoby0smh8gb-stroke" data-item-order="0" data-item-id="plai_qpoby0smh8gb" data-item-class="Icon Stroke SceneTarget Indexed" data-item-index="none" data-renderer-id="0" transform="translate(314, 8)"><g id="plai_qpoby0smh8gb-stroke" fill="none" stroke-linecap="round" stroke-linejoin="round" stroke-miterlimit="4" stroke="#da5da8" stroke-width="2"><g><path d="M 42.25 15.25C 42.25 14.421573 41.578426 13.75 40.75 13.75L 32.577999 13.75C 31.782906 11.932222 29.987059 10.757604 28.003 10.757604C 26.01894 10.757604 24.223095 11.932222 23.427999 13.75L 15.25 13.75C 14.421573 13.75 13.75 14.421573 13.75 15.25L 13.75 43.75C 13.75 44.578426 14.421573 45.25 15.25 45.25L 40.75 45.25C 41.578426 45.25 42.25 44.578426 42.25 43.75ZM 18.25 40.75L 31.869999 40.75C 32.74641 40.749619 33.578835 40.366016 34.148502 39.699997L 37.0285 36.341499C 37.493069 35.797882 37.748848 35.106583 37.75 34.391499L 37.75 18.25L 18.25 18.25Z"></path></g></g></g><g id="g-root-on_4l2po8smftae-stroke" data-item-order="0" data-item-id="on_4l2po8smftae" data-item-class="Icon Stroke SceneTarget Indexed" data-item-index="none" data-renderer-id="0" transform="translate(446, 8)"><g id="on_4l2po8smftae-stroke" fill="none" stroke-linecap="round" stroke-linejoin="round" stroke-miterlimit="4" stroke="#b65edf" stroke-width="2"><g><path d="M 37 30.571428C 37.016624 26.129648 33.790257 22.339975 29.402721 21.647717C 25.015186 20.955456 20.778736 23.567654 19.426962 27.798777C 18.07519 32.029896 20.012388 36.614479 23.988571 38.594288L 23.988571 43.017143C 24.00252 43.560936 24.447454 43.994465 24.991428 43.994286L 31.008572 43.994286C 31.552544 43.994465 31.99748 43.560936 32.011429 43.017143L 32.011429 38.517143C 35.032436 37.013283 36.958302 33.945793 37 30.571428ZM 28 12.082857L 28 15.94M 38.285713 15.76L 35.559998 18.511429M 44.148571 23.731428L 40.291428 23.731428M 17.714285 15.76L 20.440001 18.511429M 11.851429 23.731428L 15.708571 23.731428"></path></g></g></g><g id="g-root-tx_studentd_zlxta0smbm6e-stroke" data-item-order="0" data-item-id="tx_studentd_zlxta0smbm6e" data-item-class="Label Stroke SceneTarget Indexed" data-item-index="none" data-renderer-id="0" transform="translate(2, 56)"></g><g id="g-root-tx_educatio_dfgrqwsmble7-stroke" data-item-order="0" data-item-id="tx_educatio_dfgrqwsmble7" data-item-class="Label Stroke SceneTarget Indexed" data-item-index="none" data-renderer-id="0" transform="translate(140, 56)"></g><g id="g-root-tx_administ_1hegry0smblzc-stroke" data-item-order="0" data-item-id="tx_administ_1hegry0smblzc" data-item-class="Label Stroke SceneTarget Indexed" data-item-index="none" data-renderer-id="0" transform="translate(260, 56)"></g><g id="g-root-tx_personal_91iovssmbl6p-stroke" data-item-order="0" data-item-id="tx_personal_91iovssmbl6p" data-item-class="Label Stroke SceneTarget Indexed" data-item-index="none" data-renderer-id="0" transform="translate(398, 56)"></g></g></g></svg>